<?xml version="1.0" encoding="UTF-8"?>
<svg fill="rgba(255, 255, 255, 0.54)" width="32px" height="32px" viewBox="0 0 32 32" version="1.1" xmlns="http://www.w3.org/2000/svg" xmlns:xlink="http://www.w3.org/1999/xlink">
    <title>Alpine skiing</title>
    <g id="页面-1" stroke="none" stroke-width="1" fill="none" fill-rule="evenodd">
        <g id="Outrights_icons" transform="translate(-565.000000, -119.000000)">
            <g id="Alpine-skiing" transform="translate(565.000000, 119.000000)">
                <g id="编组-3" transform="translate(2.000000, 2.000000)" fill="currentColor">
                    <g id="编组-2">
                        <g id="编组">
                            <path d="M4.67629893,7.98882425 C8.91916623,4.80101918 13.5555921,4.23874557 18.3589633,6.33640096 C18.9473315,6.59334422 19.3174766,7.18527969 19.2909014,7.82675519 C19.1433358,11.388719 20.8926809,13.2089927 24.5761404,13.6612558 C25.4290847,13.7659822 26.0356352,14.5423276 25.9309089,15.3952719 C25.8261826,16.2482162 25.0498371,16.8547668 24.1968928,16.7500404 C19.3900912,16.159851 16.4501016,13.4466577 16.1894241,8.8987886 L16.1854172,8.8224631 L16.1228249,8.8006675 C13.3909993,7.85800645 10.823269,8.03327274 8.32954592,9.34014084 L8.23845776,9.38884344 L8.80281541,9.82583134 L9.39171116,10.2688718 L9.88325424,10.6251016 L10.7517832,11.2359235 L13.1895703,12.9126822 L16.6546277,15.2838588 L16.7381693,15.3435169 C16.9371434,15.487293 17.1287246,15.6279853 17.3140951,15.7665735 C18.4911944,16.6466058 17.9044779,18.5175703 16.4356382,18.5678617 L14.5297903,18.6200587 L10.5315053,18.6873677 L8.8341135,18.7260867 L8.11397856,18.7476044 L9.1275725,19.3991633 L9.56146298,19.6756434 C10.2866616,20.136695 10.5007951,21.0983408 10.0397436,21.8235394 C9.57869199,22.548738 8.6170462,22.7628715 7.89184756,22.30182 L6.6017994,21.4758497 L5.80105396,20.9564294 L4.688741,20.2240367 L3.68284449,19.5476069 L3.07128386,19.1276762 L2.50689463,18.732516 C1.32151605,17.8935137 1.82992338,16.0318436 3.27720949,15.9118012 L4.37480599,15.8262748 L5.42907746,15.7560935 L6.12731349,15.7167566 L7.19693685,15.6673153 L8.72596294,15.615862 L10.4581597,15.5762162 L11.5433804,15.5567877 L9.25289668,13.9839338 L8.26990822,13.2961244 L7.86285592,13.0056168 L7.53769847,12.7682829 C6.47530182,11.9802185 5.5037464,11.2048333 4.58758061,10.4049174 C3.84252775,9.75440239 3.88554337,8.58294479 4.67629893,7.98882425 Z" id="路径-2" fill-rule="nonzero" transform="translate(13.895263, 13.819262) rotate(-15.000000) translate(-13.895263, -13.819262) "></path>
                            <path d="M3.78382973,8.80575659 C3.54107102,8.56174076 3.54107102,8.16832749 3.78382973,7.92431166 L10.230497,1.47864036 C10.4732557,1.23586951 10.8666493,1.23586951 11.1106529,1.47864036 C11.3534116,1.72265619 11.3534116,2.11606946 11.1106529,2.35884031 L4.66523059,8.80575659 C4.54322877,8.92651953 4.38387947,8.98752348 4.22453016,8.98752348 C4.06518085,8.98752348 3.90583154,8.92651953 3.78382973,8.80575659 Z" id="Fill-9" transform="translate(7.447241, 5.142043) rotate(-296.000000) translate(-7.447241, -5.142043) "></path>
                        </g>
                        <g id="编组-4" transform="translate(0.946105, 21.283435)">
                            <path d="M0.183749652,1.32219819 C0.262044294,0.98701844 0.595677672,0.778541167 0.931257349,0.855103541 L15.9157728,4.31519022 L15.9157728,4.31519022 C16.1365482,4.36616965 16.5182445,4.34021521 17.0626325,4.24520107 L17.4496797,4.17171365 L17.4496797,4.17171365 L17.8850485,4.07828257 L17.8850485,4.07828257 L18.4579163,3.94472572 L18.4579163,3.94472572 L18.6847216,3.89612511 L18.6847216,3.89612511 L19.1466386,3.80522547 L19.1466386,3.80522547 C19.4811625,3.88244758 19.6939355,4.1975505 19.6173564,4.53312626 C19.5390617,4.86830601 19.3871125,4.94713235 18.9666602,5.02301679 L18.3593741,5.16498967 L18.3593741,5.16498967 L17.8082662,5.2846616 C17.7210965,5.30274851 17.6362674,5.31990622 17.5537792,5.33613472 L17.0869388,5.42235524 L17.0869388,5.42235524 L16.6762768,5.48627482 C16.1661796,5.55663363 15.8058913,5.56752325 15.5954118,5.51894369 L0.650820945,2.06966851 L0.650820945,2.06966851 C0.483757056,2.03019971 0.347580499,1.927391 0.263138231,1.79225513 C0.178695963,1.65711925 0.145987985,1.4896562 0.183749652,1.32219819 Z" id="Fill-9" transform="translate(9.900581, 3.193990) rotate(5.000000) translate(-9.900581, -3.193990) "></path>
                        </g>
                    </g>
                    <circle id="椭圆形" cx="22.8211861" cy="5.89611976" r="3.11197993"></circle>
                </g>
                <rect id="矩形" x="0" y="0" width="32" height="32"></rect>
            </g>
        </g>
    </g>
</svg>