<?xml version="1.0" encoding="UTF-8"?>
<svg fill="rgba(255, 255, 255, 0.54)" width="32px" height="32px" viewBox="0 0 32 32" version="1.1" xmlns="http://www.w3.org/2000/svg" xmlns:xlink="http://www.w3.org/1999/xlink">
    <title>rugby</title>
    <defs>
        <filter id="filter-1">
            <feColorMatrix in="SourceGraphic" type="matrix"></feColorMatrix>
        </filter>
    </defs>
    <g id="绿色版" stroke="none" stroke-width="1" fill="none" fill-rule="evenodd">
        <g id="rugby" transform="translate(-308.000000, -77.000000)" filter="url(#filter-1)">
            <g transform="translate(308.000000, 77.000000)">
                <path d="M12.5251499,29.3990735 L2.59612768,19.4544954 C1.98033736,22.9661746 2.50781666,26.1264467 4.19765987,27.8213279 C5.87318237,29.4994755 9.02135071,30.0158286 12.5251499,29.3990735 Z M15.222216,28.7201648 C18.3765577,27.6869664 21.2473063,25.9321904 23.6069889,23.5948823 C25.9405715,21.2314484 27.6925919,18.3562196 28.7242542,15.196973 L16.8285218,3.28260349 C13.6369712,4.32254829 10.7316449,6.09384957 8.343504,8.45569649 C6.03448447,10.7906803 4.29897379,13.6312619 3.27397439,16.7532038 L15.222216,28.7201648 L15.222216,28.7201648 Z M29.4021009,12.4956813 C30.0178912,8.98639272 29.5023458,5.83329213 27.8268233,4.15514459 C26.1656215,2.49134018 23.0270003,1.98693971 19.5255879,2.60369479 L29.4021009,12.4956813 Z M2.51020345,29.5114281 C-1.70247064,25.292154 -0.802653006,14.2359825 6.65604758,6.76559633 C14.1123614,-0.702399304 25.2968321,-1.7566202 29.5142797,2.46504442 C33.7293406,6.68670905 32.7507591,17.8169868 25.2944453,25.2849824 C17.8381315,32.752978 6.72526432,33.7307022 2.51020345,29.5114281 Z M19.3871544,10.9179358 L20.232076,10.0716904 C20.7003379,9.61871942 21.4446636,9.62519754 21.9049952,10.0862504 C22.3653269,10.5473033 22.3717949,11.2927951 21.9195325,11.7617906 L21.0746109,12.6080359 L22.7620673,14.2981361 C23.0722974,14.5982358 23.1967157,15.0426382 23.0875019,15.4605369 C22.9782881,15.8784356 22.6524384,16.2047958 22.2351934,16.3141807 C21.8179484,16.4235657 21.3742411,16.2989524 21.0746109,15.9882363 L19.3871544,14.2981361 L17.699698,15.9882363 L19.3871544,17.6783364 C19.6973846,17.9784361 19.8218029,18.4228386 19.7125891,18.8407373 C19.6033753,19.258636 19.2775256,19.5849962 18.8602806,19.6943811 C18.4430356,19.803766 17.9993283,19.6791528 17.699698,19.3684366 L16.0122416,17.6783364 L14.3247852,19.3684366 L16.0122416,21.0585367 C16.3224717,21.3586365 16.44689,21.8030389 16.3376762,22.2209376 C16.2284624,22.6388363 15.9026127,22.9651965 15.4853677,23.0745814 C15.0681227,23.1839663 14.6244155,23.0593531 14.3247852,22.7486369 L12.6373288,21.0585367 L11.7924072,21.9047821 C11.4927769,22.2154983 11.0490696,22.3401115 10.6318246,22.2307266 C10.2145796,22.1213417 9.88872991,21.7949815 9.7795161,21.3770828 C9.6703023,20.9591841 9.7947206,20.5147816 10.1049507,20.2146819 L10.9498723,19.3684366 L9.26241591,17.6783364 C8.95218578,17.3782367 8.82776748,16.9338343 8.93698128,16.5159356 C9.04619509,16.0980369 9.37204478,15.7716767 9.78928978,15.6622918 C10.2065348,15.5529069 10.650242,15.6775201 10.9498723,15.9882363 L12.6373288,17.6783364 L14.3247852,15.9882363 L12.6373288,14.2981361 C12.3270986,13.9980364 12.2026803,13.553634 12.3118941,13.1357353 C12.4211079,12.7178366 12.7469576,12.3914763 13.1642026,12.2820914 C13.5814476,12.1727065 14.0251549,12.2973198 14.3247852,12.6080359 L16.0122416,14.2981361 L17.699698,12.6080359 L16.0122416,10.9179358 C15.5599792,10.4489403 15.5664471,9.70344846 16.0267788,9.24239559 C16.4871105,8.78134272 17.2314362,8.7748646 17.699698,9.2278356 L19.3871544,10.9179358 L19.3871544,10.9179358 Z" id="形状" fill="currentColor" fill-rule="nonzero"></path>
            </g>
        </g>
    </g>
</svg>