<?xml version="1.0" encoding="UTF-8"?>
<svg fill="rgba(255, 255, 255, 0.54)" width="16px" height="16px" viewBox="0 0 16 16" version="1.1" xmlns="http://www.w3.org/2000/svg" xmlns:xlink="http://www.w3.org/1999/xlink">
    <title>icon_tabletennis_selected</title>
    <g id="页面-1" stroke="none" stroke-width="1" fill="none" fill-rule="evenodd">
        <g id="Sports_新增玩法图标" transform="translate(-311.000000, -129.000000)">
            <g id="编组-12备份" transform="translate(299.000000, 117.000000)">
                <g id="icon_football_selected" transform="translate(12.000000, 12.000000)">
                    <rect id="矩形" x="0" y="0" width="16" height="16"></rect>
                    <g id="羽毛球" transform="translate(0.000000, 0.000458)" fill="#FFFFFF" fill-rule="nonzero">
                        <path d="M11.5282244,10.9536849 L10.0530092,7.93076464 L8.11931925,5.99726301 L5.03784222,4.50962095 L5.34380581,3.87547609 L8.53298203,5.4150849 L10.6340576,7.51616043 L12.1610513,10.6448971 L11.5282244,10.9536849 Z M9.46668877,11.9885009 L8.18747852,9.36719311 L6.6557777,7.69390175 L4.07024412,6.42034005 L4.38129141,5.78864291 L7.0858213,7.12076133 L8.77568176,8.96689858 L10.0995156,11.679713 L9.46668877,11.9885009 Z" id="形状"></path>
                        <path d="M2.96350319,15.9995424 C2.90984188,15.9995424 2.85599229,15.9980361 2.8021427,15.9952118 C2.05314382,15.9552954 1.35573511,15.6414238 0.837950569,15.1110241 C0.329392004,14.5898504 0.0326543896,13.8977137 0.00252874346,13.1618948 C-0.0275969027,12.4253228 0.212278555,11.7081441 0.677719788,11.1423468 L0.691464614,11.1257777 L2.74622197,9.07102035 L7.281638,0 L9.74271501,0 C10.2518384,0 10.6658778,0.414227635 10.6658778,0.92316277 L10.6658778,2.66706111 L12.4043158,2.66706111 C12.9164518,2.66706111 13.3329389,3.08373646 13.3329389,3.59568416 L13.3329389,5.33412222 L15.0653518,5.33412222 C15.5806887,5.33412222 16,5.75343356 16,6.2687704 L16,8.718362 L6.92916794,13.2539663 L4.87459887,15.3085354 L4.85802976,15.3222802 C4.32329955,15.7621146 3.65601648,15.9995424 2.96350319,15.9995424 Z M1.34970998,11.7213241 C1.03131956,12.1161583 0.867699644,12.6139846 0.888599311,13.1255558 C0.909687264,13.6423989 1.11717765,14.1276101 1.47266028,14.4917538 C2.21695202,15.2543092 3.44551353,15.3222802 4.27886422,14.6504783 L6.40404027,12.5253023 L6.46843384,12.4931055 L15.1135529,8.17045181 L15.1135529,6.2687704 C15.1135529,6.24222217 15.0919001,6.22075765 15.0655401,6.22075765 L12.4464917,6.22075765 L12.4464917,3.59587244 C12.4464917,3.57271335 12.4276632,3.55369654 12.4043158,3.55369654 L9.77943064,3.55369654 L9.77943064,0.923351055 C9.77943064,0.903204529 9.76304982,0.886823709 9.74290329,0.886823709 L7.82973647,0.886823709 L3.47488603,9.59614802 L1.34970998,11.7213241 Z" id="形状"></path>
                        <path d="M4.33986865,11.807747 L4.97250722,12.4401973 L14.2673988,5.33261594 L13.3333155,5.33261594 L13.3333155,4.93062685 L4.33986865,11.807747 Z M10.6671958,1.60249609 L3.52666449,10.9943546 L4.15930306,11.6271814 L10.9697702,2.66950882 L10.6671958,2.66950882 L10.6671958,1.60249609 Z" id="形状"></path>
                        <path d="M1.31239184,10.5045869 L1.93934419,9.87763452 L6.12221485,14.060524 L5.49528132,14.6874764 L1.31239184,10.5045869 Z M2.17151878,9.6454411 L2.79845231,9.01848875 L6.98132296,13.2013782 L6.35437061,13.8283118 L2.17151878,9.6454411 Z" id="形状"></path>
                    </g>
                </g>
            </g>
        </g>
    </g>
</svg>