<?xml version="1.0" encoding="UTF-8"?>
<svg fill="rgba(255, 255, 255, 0.54)" width="46px" height="46px" viewBox="0 0 46 46" version="1.1" xmlns="http://www.w3.org/2000/svg" xmlns:xlink="http://www.w3.org/1999/xlink">
    <title>编组备份 11</title>
    <g id="页面-1" stroke="none" stroke-width="1" fill="none" fill-rule="evenodd">
        <g id="icon" transform="translate(-372.000000, -954.000000)">
            <g id="编组备份-11" transform="translate(372.000000, 954.000000)">
                <rect id="矩形" x="0" y="0" width="46" height="46" rx="1"></rect>
                <path d="M8.15024467,8.15009574 C-0.0502801273,16.3510674 -0.049882986,29.6457057 8.15024467,37.8467269 C16.3503723,46.0466064 29.6493298,46.0466064 37.8499043,37.8467269 C46.0500319,29.6457553 46.0500319,16.351117 37.8499043,8.15009574 C29.6493298,-0.0500319149 16.3503723,-0.0500319149 8.15024467,8.15009574 Z M22.7336277,38.9901099 C22.2923795,38.9248759 21.9992234,38.8811383 21.8170249,39.063039 C21.7581951,39.1223156 21.6667979,39.2562589 21.7240887,39.4777766 C21.7923511,39.7384149 22.0320391,40.0002447 22.3996632,40.2148617 C22.7609824,40.4269468 23.291493,40.5934078 23.8812802,40.6286064 C23.9181171,40.8105567 23.9498901,40.9926064 23.9825071,41.1754007 C18.9895213,41.4423936 13.9104008,39.6938333 10.1063228,35.8905496 C6.50241495,32.287039 4.73389721,27.5385071 4.78393978,22.8054149 C5.28868445,22.8723369 5.78806743,22.9513227 6.28119511,23.0509114 C6.14258518,23.2904007 5.99215964,23.5058617 5.86273412,23.6877624 C5.59812419,24.0603511 5.42342204,24.3050532 5.52023059,24.5548192 C5.55478378,24.6448759 5.63888309,24.7625355 5.83870576,24.8062731 C6.23358522,24.8946419 6.81150718,24.6312234 7.31123767,24.1315426 C7.52739369,23.914344 7.70998942,23.6680035 7.86170575,23.4062731 C8.7380958,23.6499823 9.58340788,23.9606631 10.411493,24.303266 C10.3158263,24.4131312 10.2213511,24.5160958 10.1338263,24.6037199 L9.67867735,25.0440248 C9.49990428,25.2216561 9.32952135,25.4157199 9.37330858,25.6449326 C9.39048588,25.7376206 9.45204618,25.8672447 9.6379185,25.9479185 C10.1381454,26.1659114 11.057727,25.8097553 11.7315143,25.1341312 C11.7864717,25.0801667 11.827032,25.0174149 11.8776703,24.9599256 C12.6877838,25.365032 13.464188,25.8259894 14.2137837,26.323039 C13.9970319,26.4904433 13.779883,26.6406206 13.5910319,26.7625 C13.3806844,26.8973369 13.214422,27.0036773 13.1045071,27.1135922 C12.9890319,27.2286205 12.9369043,27.3523369 12.9482731,27.4801241 C12.9566631,27.5642234 12.9984646,27.6895284 13.1491879,27.7916986 C13.6086064,28.1101738 14.6777199,27.9273298 15.5412518,27.261188 C16.2560461,27.8124007 16.9307766,28.4105284 17.5728404,29.0415213 C17.3254078,29.1668263 17.0803085,29.2663653 16.8719468,29.348727 C16.5736773,29.4663866 16.3576206,29.5513795 16.2311738,29.6775781 C16.0575638,29.8509397 16.0640177,30.0911738 16.2451241,30.2723298 C16.4330815,30.4655497 16.7706206,30.5736277 17.1963794,30.5771029 C17.6142447,30.5796348 18.1547837,30.4603369 18.681422,30.1985071 C19.2816347,30.8775568 19.8353298,31.5960248 20.3516418,32.3427908 C20.0823156,32.419195 19.8222234,32.469883 19.6012517,32.5109894 C19.2293581,32.5805426 18.9825709,32.6260674 18.8393936,32.7694433 C18.7281879,32.8801029 18.6628049,33.0792801 18.8084645,33.2973723 C18.9559113,33.5231099 19.2666418,33.6938901 19.6818758,33.7797766 C20.0936844,33.8630319 20.6503581,33.8474929 21.2216276,33.6895709 C21.6823865,34.4691028 22.0911666,35.2793156 22.4568546,36.1137057 C22.1740248,36.137734 21.9046489,36.137734 21.6774716,36.1368901 C21.244117,36.1334645 20.9825851,36.130883 20.818656,36.295656 C20.7630035,36.3514574 20.6442021,36.5084858 20.7482589,36.7591454 C20.8506276,37.0090106 21.1233794,37.2355922 21.5165213,37.3969893 C21.9062376,37.5583865 22.459039,37.6510248 23.0529965,37.6021738 C23.224273,38.0846277 23.3646702,38.5782021 23.5032801,39.0743085 C23.222039,39.0587198 22.9576773,39.0235213 22.7336277,38.9901099 Z M35.8941241,35.8904503 C33.0833015,38.7007766 29.5747128,40.3822163 25.9213582,40.9693723 C25.875883,40.7057056 25.8256915,40.4448688 25.7711809,40.182195 C26.0638901,40.0088333 26.29911,39.8157128 26.4656206,39.6493014 C27.005117,39.111195 27.29311,38.465656 27.1827483,38.0467978 C27.1303724,37.8468262 27.0098334,37.7670461 26.9179894,37.736117 C26.6639043,37.6493368 26.4252589,37.8347127 26.0638405,38.1163014 C25.8733015,38.2639964 25.6482093,38.4381524 25.389805,38.5978617 C25.2293511,38.0201383 25.0477483,37.4510035 24.8460391,36.8896631 C24.946422,36.8089396 25.0503298,36.7360602 25.1430674,36.6442162 C25.8179468,35.9694857 26.1651667,35.0820248 25.9527341,34.5814999 C25.8733015,34.3934928 25.7453653,34.3316843 25.652032,34.3136631 C25.4177057,34.2681879 25.2211596,34.4415496 25.0056986,34.6561666 L24.6760533,34.9918191 C24.5524859,35.1145425 24.4047909,35.2492801 24.246422,35.3823297 C23.8361029,34.4440815 23.3712731,33.5350744 22.851188,32.6604219 C23.5949256,31.7899893 23.8236916,30.6474503 23.5001029,30.1685708 C23.3988263,30.0165566 23.2743157,29.9744574 23.1889256,29.9651737 C23.059649,29.9531099 22.9338972,30.0062801 22.8168334,30.1229964 C22.7086064,30.2320673 22.6022164,30.3943084 22.4674788,30.5993935 C22.3317979,30.8054715 22.1607696,31.0450105 21.96611,31.2827127 C21.388188,30.4441028 20.7622093,29.6415354 20.0860391,28.8801241 C20.6622235,27.8723226 20.6609327,26.7161312 20.2512589,26.304968 C20.1573299,26.2114361 20.0538689,26.1632801 19.9424646,26.1642234 C19.8692873,26.1642234 19.7587766,26.1856702 19.6536277,26.2912659 C19.5283228,26.4157269 19.4413937,26.6295 19.3210036,26.9247411 C19.2280674,27.1540035 19.1141809,27.4260106 18.9635071,27.7024362 C18.2360036,26.9849114 17.4656561,26.3110248 16.6512731,25.6869326 C16.8570532,25.0740106 16.8806844,24.4637695 16.7965355,24.0207837 C16.7177979,23.600188 16.5501951,23.2860319 16.3262944,23.134117 C16.1057199,22.98389 15.9067909,23.0499681 15.7949894,23.1624149 C15.6516136,23.3049468 15.603805,23.5478617 15.5304291,23.9195071 C15.4821242,24.1606845 15.4243866,24.4490745 15.3299611,24.7453085 C14.4818689,24.1804433 13.5964433,23.664578 12.6753724,23.2062021 C12.758032,22.5693014 12.6661384,21.9692872 12.4998263,21.5503794 C12.3414575,21.1529681 12.116117,20.873961 11.8665993,20.7675213 C11.6150958,20.6602376 11.4577695,20.7795355 11.4008759,20.8353369 C11.2380391,20.998422 11.2369469,21.2585142 11.2356561,21.6902801 C11.2346135,21.9366206 11.2330745,22.2284858 11.1976774,22.5349468 C10.2592306,22.1443865 9.29332987,21.8053582 8.29764188,21.5323582 C8.25643621,20.8902943 8.05125179,20.3186277 7.80769152,19.9409256 C7.57718796,19.5820887 7.30384044,19.3529255 7.03903194,19.2962802 C6.82555674,19.250805 6.69781915,19.3392234 6.64132272,19.3949752 C6.45420924,19.5829823 6.5109043,19.8782731 6.59520217,20.3237412 C6.64132272,20.5649681 6.695188,20.8534078 6.72010995,21.1606632 C6.12610285,21.0396277 5.5239539,20.9357695 4.91366313,20.8585213 C5.37506739,16.9262589 7.09607445,13.1159255 10.1057766,10.105578 C12.985656,7.22654256 16.5989964,5.53383335 20.3492589,4.98698937 C20.3782518,5.24281207 20.4016347,5.49689717 20.4390177,5.75182623 C20.4922376,6.11319504 20.5548901,6.47203191 20.6235497,6.82908154 C20.3254788,6.80162766 20.0473652,6.74493261 19.8132376,6.69866312 C19.3653865,6.60766313 19.0700958,6.54923048 18.8805993,6.73813119 C18.8243511,6.7939326 18.7368262,6.91918794 18.7807624,7.13301064 C18.8975284,7.69782626 19.8410887,8.3304078 20.9849185,8.41882627 C21.2434717,9.41198227 21.562344,10.3836915 21.9394007,11.3278972 C21.6452021,11.3553511 21.3660461,11.3553511 21.1301809,11.3536631 C20.695188,11.3502376 20.433805,11.3485 20.2687837,11.5124291 C20.2134291,11.5682305 20.0945284,11.7253085 20.1996773,11.9768121 C20.3446915,12.3244291 20.828883,12.6274645 21.4644929,12.7656276 C21.7119255,12.8214787 22.1209043,12.8643723 22.5926348,12.815422 C23.0364149,13.7399184 23.5398192,14.6326418 24.0965426,15.4926986 C23.8154007,15.5751099 23.5429469,15.6274858 23.3115,15.6703794 C22.9385639,15.7407766 22.6921738,15.7871454 22.5476064,15.9305213 C22.4363511,16.0421241 22.3702731,16.2386702 22.5170745,16.4600886 C22.6664575,16.6849822 22.9797696,16.8549681 23.3986774,16.9390673 C23.8304433,17.0257978 24.4209752,17.0085709 25.0222306,16.8257765 C25.6347058,17.6446773 26.3031809,18.4249538 27.0190178,19.1666064 C26.7568405,19.3021879 26.4980391,19.4069397 26.2778618,19.4927766 C25.9787483,19.6112305 25.7632873,19.6970674 25.6364434,19.8240603 C25.463876,19.9974716 25.4689895,20.2352234 25.6493512,20.4198049 C25.8380037,20.6111879 26.177876,20.7193652 26.604032,20.7219468 C27.0460746,20.7253723 27.6250888,20.5940106 28.1799753,20.2979255 C28.7710036,20.8343936 29.3903299,21.3451454 30.038798,21.8275993 C30.2156845,21.9588617 30.3984788,22.0825284 30.5778477,22.208727 C30.3486846,22.3898334 30.1186774,22.5511809 29.9186065,22.679117 C29.7083583,22.8138546 29.541798,22.9202944 29.4327768,23.0293652 C29.3169541,23.1452376 29.2645782,23.267961 29.2765924,23.3966915 C29.2843371,23.4816348 29.3250959,23.6053015 29.476564,23.7091596 C29.9521172,24.0354291 31.0705285,23.8267199 31.9461243,23.1117766 C32.8233584,23.6474008 33.7298335,24.1203227 34.6569612,24.536649 C34.5530534,24.6568404 34.4491456,24.7701809 34.3530818,24.8662943 L33.9079612,25.2980603 C33.727252,25.4783227 33.5542875,25.6749184 33.5976775,25.9040816 C33.6156988,25.9976631 33.6774577,26.127188 33.8637768,26.2079114 C34.3649966,26.4260036 35.2860676,26.0671171 35.9599541,25.3924362 C36.0345711,25.3178192 36.0921102,25.2344646 36.1573442,25.1546844 C37.1208619,25.512578 38.1049328,25.8062305 39.1038477,26.0379752 C38.9600747,26.2885852 38.8021527,26.5134788 38.6677626,26.7031738 C38.4029044,27.0765568 38.2278548,27.3211596 38.3248619,27.5719185 C38.3591669,27.6620745 38.4446066,27.7786915 38.6424434,27.8216348 C39.0381669,27.9117412 39.6179257,27.6447483 40.1180037,27.1443724 C40.35233,26.9108901 40.551408,26.6431029 40.7094293,26.3555072 C40.7750605,26.3666277 40.8398974,26.3795355 40.9050321,26.3898121 C40.2503582,29.8731809 38.5834646,33.2011596 35.8941241,35.8904503 Z M41.154649,24.4783156 C41.1349397,24.4748901 41.1156773,24.4696773 41.0950248,24.4663014 C41.040961,23.8560107 40.8461029,23.3151738 40.6126206,22.9520674 C40.3825638,22.5975497 40.1121951,22.3718121 39.8520036,22.3160107 C39.6358476,22.2687979 39.5078617,22.3580603 39.4503724,22.4147057 C39.2632093,22.6027128 39.3190107,22.8970603 39.4031596,23.3452093 C39.4477908,23.5777979 39.4993724,23.8542234 39.5245922,24.1512022 C38.6391667,23.9452235 37.7645142,23.6946135 36.9094717,23.3804078 C36.9722235,22.7701171 36.8838547,22.2018263 36.7241455,21.8009894 C36.5662731,21.4095852 36.3438618,21.1357412 36.0987625,21.0309894 C35.8452235,20.9202802 35.6854646,21.0413157 35.6297128,21.0979611 C35.4657341,21.2618901 35.4649894,21.522876 35.4623086,21.9545922 C35.4614646,22.1906561 35.4589823,22.4696632 35.4280533,22.7623724 C34.6022518,22.3906773 33.7919398,21.9821454 33.0095284,21.5091738 C33.1854717,20.9253937 33.2083086,20.3520391 33.1270887,19.9305994 C33.0476561,19.5142731 32.8811951,19.2035426 32.6614149,19.0550533 C32.4373157,18.9031384 32.2382873,18.9683228 32.1249469,19.0816632 C31.9815213,19.2250391 31.9326703,19.4696419 31.8596915,19.840493 C31.8141171,20.0688618 31.7592589,20.336649 31.674266,20.6121809 C31.5146064,20.4996845 31.3446702,20.4036207 31.1866986,20.2860107 C30.6158759,19.8602518 30.0690816,19.4096206 29.5463653,18.9383369 C30.0716632,17.952032 30.0575639,16.8533298 29.6622376,16.4576065 C29.5669681,16.3613937 29.46311,16.3134363 29.3497696,16.3134363 C29.2768405,16.3134363 29.1661313,16.3348831 29.0605355,16.4404788 C28.934337,16.5666774 28.8472589,16.7795568 28.725727,17.074798 C28.6364646,17.2945781 28.5292306,17.5529327 28.3884362,17.8164504 C27.7575426,17.1614788 27.1673582,16.4730958 26.6235426,15.7520462 C27.318876,14.8918901 27.525649,13.8000887 27.2141242,13.3357058 C27.1111597,13.1803157 26.987493,13.1382164 26.9008618,13.1296774 C26.7707412,13.1168192 26.6453866,13.1700391 26.5274292,13.288493 C26.4184576,13.3966207 26.313259,13.5580178 26.1788689,13.7640462 C26.0475569,13.9632235 25.8827342,14.1941242 25.6975072,14.4215994 C25.2056703,13.6601881 24.7606491,12.8704788 24.3644292,12.0541597 C24.4412306,11.988032 24.5249327,11.9322802 24.5971171,11.8601455 C25.2700604,11.1888901 25.6186207,10.3039114 25.4077767,9.80512417 C25.3283937,9.61458518 25.1983228,9.55367027 25.104493,9.53475536 C24.8683795,9.48838656 24.6692519,9.66348586 24.4512093,9.88068446 L24.1302022,10.2085426 C24.0060888,10.3330532 23.8657909,10.4600461 23.7173512,10.5853511 C23.3842306,9.74847875 23.10011,8.88832274 22.8679186,8.00850715 C23.1478193,7.85227309 23.4100462,7.65825894 23.6378689,7.42998943 C24.1327838,6.9364646 24.3885569,6.3853015 24.3061952,5.99474121 C24.2650391,5.79129439 24.1482235,5.70545753 24.0581172,5.66941495 C23.8099895,5.5707199 23.5610675,5.74234404 23.1852023,6.00159226 C22.9929257,6.13642916 22.7645072,6.29340787 22.5077909,6.43598942 C22.4477696,6.11577665 22.3893867,5.79561351 22.3421739,5.47197522 C22.3104505,5.2514504 22.2894009,5.02993269 22.2640817,4.81020215 C27.1781313,4.61450003 32.1528477,6.36643617 35.8936774,10.106422 C39.8237554,14.0368972 41.5705284,19.3288475 41.154649,24.4783156 Z" id="形状" fill="currentColor" fill-rule="nonzero"></path>
            </g>
        </g>
    </g>
</svg>