<?xml version="1.0" encoding="UTF-8"?>
<svg fill="rgba(255, 255, 255, 0.54)" width="35px" height="34px" viewBox="0 0 35 34" version="1.1" xmlns="http://www.w3.org/2000/svg" xmlns:xlink="http://www.w3.org/1999/xlink">
    <title>Biathlon</title>
    <g id="页面-1" stroke="none" stroke-width="1" fill="none" fill-rule="evenodd">
        <g id="Outrights_icons" transform="translate(-319.000000, -242.000000)">
            <g id="Biathlon" transform="translate(322.000000, 242.000000)">
                <polygon id="Clip-2" points="0 2 32 2 32 34 0 34"></polygon>
                <g id="编组-3备份-2" transform="translate(0.000000, -0.000000)">
                    <g id="编组-2" transform="translate(0.000000, 4.579941)">
                        <g id="编组" stroke="currentColor" stroke-linecap="round" stroke-linejoin="round" stroke-width="3">
                            <path d="M9.22255609,2.77764157 C10.1082769,5.01520541 11.0265002,6.84934628 12.0365518,9.28400688 C14.8557469,8.98853306 17.7235287,8.83328867 19.7008005,8.72973884 C20.0618683,10.6389693 20.0618683,10.6389693 19.9659873,12.4464225 C17.6906259,12.718744 12.6400463,14.3558523 10.0021793,15.8480431 C7.37357958,17.3349916 5.3834469,19.4919553 4.03178124,22.3189341" id="路径-2" transform="translate(12.025946, 12.548288) scale(-1, 1) rotate(-33.000000) translate(-12.025946, -12.548288) "></path>
                            <path d="M6.39403772,15.587062 C6.47375079,17.6959933 6.58614785,19.2227946 6.73122889,20.1674657 C6.87630993,21.1121369 7.07611868,22.0002482 7.33065516,22.8317998" id="路径-4" transform="translate(6.862346, 19.209431) rotate(19.000000) translate(-6.862346, -19.209431) "></path>
                        </g>
                        <g id="编组-4" transform="translate(0.512185, 22.431854)" fill="currentColor">
                            <path d="M6.21768368,4.24569786 C6.21844485,3.95096543 6.45664886,3.71276141 6.7513813,3.71200025 L19.9199296,3.71253314 L19.9199296,3.71253314 C20.0061606,3.71253663 20.1159852,3.69373812 20.2496662,3.65668443 L20.4681128,3.58748086 C20.5075136,3.57368782 20.5484136,3.55877092 20.590817,3.5427387 L20.8633102,3.43322994 L20.8633102,3.43322994 L21.172081,3.29736369 L21.172081,3.29736369 L21.5173264,3.13555007 L21.5173264,3.13555007 L21.9695626,2.91377306 L21.9695626,2.91377306 L22.3816103,2.72478779 C22.4246658,2.7056203 22.4699007,2.68559813 22.5173152,2.66472128 C22.8112938,2.66472128 23.0495126,2.88662994 23.050259,3.18136233 C23.0494978,3.47609477 22.9379053,3.5711307 22.6017253,3.71543136 L22.1223939,3.95085983 L22.1223939,3.95085983 L21.6856381,4.1568608 L21.6856381,4.1568608 L21.2914582,4.33343425 L21.2914582,4.33343425 L20.939854,4.48058021 C20.4443795,4.6792285 20.0925982,4.77855897 19.88451,4.7785716 L6.75135461,4.77936879 L6.75135461,4.77936879 C6.60436532,4.77861867 6.47094574,4.71907249 6.37446286,4.62258961 C6.27797998,4.52610673 6.2184338,4.39268715 6.21768368,4.24569786 Z" id="Fill-9备份"></path>
                            <path d="M0,1.58097658 C0.000761160576,1.28624415 0.238965181,1.04804013 0.533697616,1.04727897 L13.702246,1.04781186 L13.702246,1.04781186 C13.788477,1.04781535 13.8983016,1.02901684 14.0319825,0.991963148 L14.2504292,0.92275958 C14.28983,0.908966539 14.33073,0.894049636 14.3731334,0.878017417 L14.6456266,0.768508656 L14.6456266,0.768508656 L14.9543974,0.632642407 L14.9543974,0.632642407 L15.2996428,0.470828785 L15.2996428,0.470828785 L15.751879,0.249051777 L15.751879,0.249051777 L16.1639267,0.0600665089 C16.2069822,0.0408990187 16.2522171,0.0208768491 16.2996316,0 C16.5936102,0 16.831829,0.221908659 16.8325754,0.516641054 C16.8318142,0.811373487 16.7202217,0.906409423 16.3840417,1.05071008 L15.9047103,1.28613855 L15.9047103,1.28613855 L15.4679545,1.49213951 L15.4679545,1.49213951 L15.0737746,1.66871297 L15.0737746,1.66871297 L14.7221704,1.81585893 C14.2266959,2.01450722 13.8749146,2.11383769 13.6668264,2.11385032 L0.533670928,2.11464751 L0.533670928,2.11464751 C0.386681635,2.11389739 0.253262056,2.05435121 0.156779176,1.95786833 C0.0602962964,1.86138545 0.000750116152,1.72796587 0,1.58097658 Z" id="Fill-9备份-2"></path>
                        </g>
                    </g>
                    <circle id="椭圆形" fill="currentColor" cx="9.38981812" cy="5.50105459" r="2.66472171"></circle>
                    <g id="编组" transform="translate(16.882053, 9.269522) rotate(-300.000000) translate(-16.882053, -9.269522) translate(11.583010, -0.091311)" fill="currentColor">
                        <path d="M0.362238626,16.9640387 C-0.00462096992,17.5993886 -0.244544584,18.2092825 0.411360853,18.5879696 C1.06726629,18.9666568 1.52373819,18.4842181 1.89059779,17.8496398 L4.3252481,13.6814931 C4.68863584,13.0434428 4.22960875,12.1728865 4.15631399,12.1015205 C4.0791616,12.0297688 4.03132712,11.9286992 4.03132712,11.8160567 C4.03132712,11.7821097 4.03518474,11.752406 4.04289998,11.7184589 C4.05948774,11.6505649 4.09806394,11.5942436 4.13278251,11.5344505 L10.5626287,0.3953844 C10.6359235,0.271554822 10.5919466,0.106062958 10.4642594,0.0346970021 C10.3373437,-0.0366689536 10.1757095,0.00499333403 10.1024147,0.13268053 L9.96469771,0.369152589 C9.89526056,0.478323213 9.77413132,0.549303407 9.63602855,0.549303407 C9.54498873,0.549303407 9.49522544,0.526929215 9.42000187,0.48179507 L9.05468532,0.271554822 C8.9281554,0.200188867 8.76652116,0.241465392 8.69322639,0.369152589 C8.61993162,0.492982166 8.66429424,0.658474031 8.79198144,0.729454224 L9.13916718,0.932364996 C9.20320366,0.966312045 9.23985104,0.989071998 9.28768552,1.04500748 C9.34130643,1.11290158 9.37216739,1.19931225 9.37216739,1.28919477 C9.37216739,1.31889844 9.36830977,1.34590178 9.36445215,1.37174783 C9.351722,1.43192669 9.30928819,1.50715026 9.28035605,1.55961388 L3.00792788,12.4231443 C2.92280308,12.5705053 2.04090667,14.0841368 0.362238626,16.9640387 Z" id="Fill-1"></path>
                    </g>
                </g>
            </g>
        </g>
    </g>
</svg>