<?xml version="1.0" encoding="UTF-8"?>
<svg fill="rgba(255, 255, 255, 0.54)" width="32px" height="32px" viewBox="0 0 32 32" version="1.1" xmlns="http://www.w3.org/2000/svg" xmlns:xlink="http://www.w3.org/1999/xlink">
    <title>Bobsleigh</title>
    <g id="页面-1" stroke="none" stroke-width="1" fill="none" fill-rule="evenodd">
        <g id="Outrights_icons" transform="translate(-644.000000, -119.000000)">
            <g id="Bobsleigh" transform="translate(644.000000, 119.000000)">
                <path d="M3.14310302,17.3659781 C3.00466162,17.284344 2.95879502,17.1080311 3.04042916,16.9687481 C3.12038011,16.8294651 3.29879699,16.7840193 3.43681759,16.866495 L11.3490168,21.5078585 C11.4874582,21.5899134 11.5333248,21.7658055 11.4542154,21.9050885 C11.3746853,22.0401635 11.1941644,22.0898173 11.0582478,22.0077624 L3.14310302,17.3659781 Z M26.8822254,13.2531326 C27.8466864,14.5554916 27.571066,16.3909972 26.2695486,17.3575622 C24.9667688,18.3207609 23.1295799,18.045982 22.1646981,16.743623 C21.2019203,15.4404224 21.4762783,13.6049168 22.7790581,12.6383518 C24.0818379,11.6755739 25.9190267,11.9499319 26.8822254,13.2531326 L26.8822254,13.2531326 Z M21.071474,9.89771712 C22.0363558,11.2004969 21.7611562,13.0397897 20.459218,14.0025676 C19.1564382,14.9653454 17.3188285,14.6909874 16.3543675,13.3882076 C15.3915897,12.085007 15.6659477,10.2499221 16.9687275,9.28293633 C18.2715073,8.32015849 20.1086961,8.59451651 21.071474,9.89771712 L21.071474,9.89771712 Z M15.2632473,6.54230168 C16.2260252,7.84508149 15.9537711,9.6843743 14.6509913,10.6471521 C13.3482115,11.6141379 11.5106019,11.3397799 10.5461409,10.0370001 C9.58125904,8.7337995 9.85561706,6.89450669 11.1583969,5.93172884 C12.4611767,4.968951 14.2987863,5.23952187 15.2632473,6.54230168 L15.2632473,6.54230168 Z M9.45333751,3.1906734 C10.4182193,4.48966605 10.1434405,6.32895886 8.8406607,7.29594465 C7.53788089,8.25872249 5.70069206,7.98436447 4.73581024,6.68158466 C3.7730324,5.37880486 4.04528645,3.53951205 5.34806626,2.5767342 C6.65084606,1.60974842 8.4884557,1.88831438 9.45333751,3.1906734 L9.45333751,3.1906734 Z M25.7654367,25.1250081 C25.7654367,25.272707 25.6459311,25.391371 25.4973906,25.391371 C25.4031327,25.391371 25.3311768,25.3383509 25.2533298,25.2933259 L5.19026831,13.6503626 C4.49806134,13.2489246 3.61313049,13.4824656 3.21295491,14.1746725 C2.81235853,14.8710874 3.04674107,15.7560183 3.73936884,16.1574563 L26.668041,29.4638203 C27.3602479,29.8652583 28.2472828,29.6279302 28.6474584,28.9353024 C28.7417163,28.7711925 28.8014691,28.5995084 28.8258752,28.4274034 C29.1423127,26.8338546 29.0800351,25.166246 28.1972082,23.4414093 C27.3530944,21.7986275 25.7717487,20.1600537 23.0517329,18.5829158 L5.19447626,8.21369748 C4.50311088,7.81225952 3.61733843,8.04958762 3.21463808,8.74221539 C2.8144625,9.43442236 3.05094902,10.319774 3.74315599,10.721212 L21.5999919,21.0858016 C23.7940145,22.3641753 25.0210513,23.5891081 25.6211042,24.7563921 C25.6417232,24.8018379 25.6631837,24.8388678 25.6816986,24.8834721 C25.7153622,24.9575319 25.7654367,25.0475819 25.7654367,25.1250081 L25.7654367,25.1250081 Z M18.8143322,26.5304618 C18.6779948,26.4488276 18.6321282,26.2725147 18.7120791,26.1332318 C18.7907677,25.9939488 18.9700262,25.948503 19.1080468,26.0309787 L27.02235,30.6723421 L27.0265579,30.6765501 C27.2546285,30.8158331 27.5167835,30.848655 27.7587403,30.7910062 C27.9973308,30.7341989 28.2153024,30.5822921 28.3537438,30.3571671 C28.3672092,30.3365481 28.3815162,30.3201371 28.3979272,30.3037262 L28.3958232,30.3037262 L28.3979272,30.3037262 C28.5094378,30.18927 28.6937458,30.18927 28.8073603,30.3037262 C28.9100341,30.4059792 28.9201332,30.5616732 28.8363951,30.6765501 C28.6137948,31.0291759 28.2695849,31.2622961 27.8929738,31.356554 C27.5146795,31.4423961 27.1039841,31.3935839 26.745888,31.1802411 C26.7303186,31.1760332 26.7202195,31.1680381 26.7075957,31.160043 L18.8143322,26.5304618 Z" id="Fill-1" fill="currentColor"></path>
                <rect id="矩形" x="0" y="0" width="32" height="32"></rect>
            </g>
        </g>
    </g>
</svg>