<?xml version="1.0" encoding="UTF-8"?>
<svg fill="rgba(255, 255, 255, 0.54)" width="32px" height="32px" viewBox="0 0 32 32" version="1.1" xmlns="http://www.w3.org/2000/svg" xmlns:xlink="http://www.w3.org/1999/xlink">
    <title>Cross-country skiing</title>
    <g id="页面-1" stroke="none" stroke-width="1" fill="none" fill-rule="evenodd">
        <g id="Outrights_icons" transform="translate(-480.000000, -119.000000)">
            <g id="Cross-country-skiing" transform="translate(480.000000, 119.000000)">
                <path d="M19.2449275,6.88257963 C19.4647343,7.20041936 19.5533932,7.59082891 19.4924242,7.97243067 L19.4157643,8.44396393 L19.2611185,9.341871 C18.8828772,11.4472862 18.4695265,13.0712245 17.8505632,14.6334589 C19.0979161,15.2193518 20.608085,15.8088382 22.3763052,16.3993025 C23.3154662,16.7129179 23.6984809,17.8343623 23.147378,18.656958 C22.2834053,19.9465541 21.4357538,21.1506305 20.6041813,22.2693042 L20.4800725,22.4335372 L21.9011977,22.4339849 C22.6808938,22.4339849 23.3216464,23.028873 23.3943311,23.7895249 L23.4011977,23.9339849 C23.4011977,24.0958016 23.3755746,24.2516337 23.3281645,24.3976453 L26.3323917,24.3968945 C26.4294724,24.3968984 26.5531152,24.3757347 26.7036161,24.3340189 L26.9495479,24.256108 C26.9939062,24.2405795 27.0399523,24.2237858 27.0876909,24.2057363 L27.3944695,24.0824491 L27.7420902,23.929488 L28.1307747,23.7473148 L28.6399118,23.4976335 L29.1038039,23.2848699 C29.1522766,23.2632908 29.203203,23.2407494 29.2565832,23.2172458 C29.5875506,23.2172458 29.8557423,23.4670752 29.8565826,23.7988912 C29.8557257,24.1307072 29.7300924,24.2377007 29.351614,24.4001574 L28.8119725,24.6652077 L28.3202637,24.897128 L27.8764875,25.0959181 L27.4806441,25.2615781 C26.9228285,25.4852206 26.5267856,25.5970489 26.2925156,25.5970631 L11.5069317,25.5979606 C11.3414481,25.5971161 11.1912415,25.5300778 11.082619,25.4214553 C10.9739966,25.3128329 10.9069582,25.1626263 10.9061137,24.9971426 C10.9069707,24.6653266 11.1751458,24.3971515 11.5069618,24.3962946 L15.9740845,24.3969493 C15.8244302,23.9408589 15.887628,23.4118667 16.2437874,22.9798353 C17.1404331,21.892179 18.0621428,20.6876449 19.0085319,19.3664193 L19.5591575,18.5871605 L19.2819587,18.4841051 C18.2800498,18.1050827 17.3697467,17.7234288 16.5504553,17.3385109 C16.1664595,18.0268826 15.7272283,18.7477291 15.2208946,19.5322721 C13.413994,22.3319899 10.6156661,24.5251198 6.8632014,26.1228384 L18.1809273,28.7358498 C18.3937585,28.7849948 18.76172,28.7599743 19.286519,28.6683791 L19.6596389,28.597536 L20.0793416,28.5074669 L20.6315956,28.3787159 L20.8502397,28.3318641 L21.2955353,28.2442354 C21.6180218,28.3186788 21.8231385,28.6224432 21.749315,28.9459437 C21.6738376,29.2690625 21.5273561,29.3450524 21.1220332,29.4182063 L20.5365993,29.5550705 L20.0053222,29.6704362 C19.9212891,29.6878723 19.8395126,29.7044126 19.7599925,29.7200571 L19.3099507,29.8031751 L18.9140657,29.8647947 C18.4223236,29.9326217 18.0749997,29.9431195 17.8720941,29.896288 L3.46526187,26.5711298 C3.30420952,26.5330812 3.17293308,26.433972 3.09152934,26.3036987 C3.0101256,26.1734255 2.97859457,26.0119884 3.01499744,25.8505561 C3.05543837,25.6774282 3.16654533,25.5393658 3.31074387,25.4598479 C3.24521102,24.7948331 3.63660986,24.1440987 4.29584286,23.9073241 C8.25603424,22.4849546 11.0394072,20.4789184 12.7002636,17.9054903 L13.1423045,17.2086977 C14.8991934,14.3856278 15.6191668,12.5025931 16.2372898,9.20195465 L16.3213011,8.73798176 L16.2640292,8.74473367 C15.6079914,8.83193804 14.8098031,9.1142433 14.0322942,9.55086921 L13.7741139,9.70207082 C11.7061666,10.9639613 10.4012832,12.9152635 10.4012832,15.1766521 C10.4012832,16.0050792 9.72971031,16.6766521 8.90128318,16.6766521 C8.07285606,16.6766521 7.40128318,16.0050792 7.40128318,15.1766521 C7.40128318,11.7696391 9.31414899,8.90916933 12.2114368,7.14120368 C14.917565,5.48988638 17.9985632,5.0803421 19.2449275,6.88257963 Z M22.9007411,2 C24.5575953,2 25.9007411,3.34314575 25.9007411,5 C25.9007411,6.65685425 24.5575953,8 22.9007411,8 C21.2438868,8 19.9007411,6.65685425 19.9007411,5 C19.9007411,3.34314575 21.2438868,2 22.9007411,2 Z" id="形状结合" fill="currentColor"></path>
                <rect id="矩形" x="0" y="0" width="32" height="32"></rect>
            </g>
        </g>
    </g>
</svg>