<?xml version="1.0" encoding="UTF-8"?>
<svg fill="rgba(255, 255, 255, 0.54)" width="32px" height="32px" viewBox="0 0 32 32" version="1.1" xmlns="http://www.w3.org/2000/svg" xmlns:xlink="http://www.w3.org/1999/xlink">
    <title>icon_Curling</title>
    <g id="页面-1" stroke="none" stroke-width="1" fill="none" fill-rule="evenodd">
        <g id="Outrights_icons" transform="translate(-238.000000, -119.000000)">
            <g id="icon_Curling" transform="translate(238.000000, 119.000000)">
                <rect id="矩形" x="0" y="0" width="32" height="32"></rect>
                <path d="M30.5557194,24.0217255 C30.5746265,24.0595398 30.6032297,24.0958998 30.6332873,24.1254725 C30.6783736,24.1632869 30.7089159,24.1739525 30.7636983,24.1977076 C31.344003,24.4585296 31.74978,25.0436824 31.74978,25.7243406 C31.74978,26.648368 30.9993107,27.3978677 30.0743137,27.3978677 L26.759741,27.3978677 C25.837168,27.3978677 25.0876683,26.648368 25.0876683,25.7243406 C25.0876683,24.7993435 25.837168,24.0503286 26.759741,24.0503286 L29.2433677,24.0503286 C29.3311164,24.0503286 29.3849291,24.0571158 29.4654058,24.0110599 C29.5129161,23.9853655 29.5550937,23.9436728 29.58806,23.8981017 C29.7058662,23.7289067 29.6282983,23.5378958 29.479465,23.4200896 C29.3403276,23.3056769 29.177435,23.2266547 28.9932113,23.1898099 C28.8705571,23.1684788 28.7575988,23.1709027 28.6368838,23.1684788 L26.494071,23.1684788 C26.3098473,23.1684788 26.1605291,23.0186758 26.1605291,22.8349368 C26.1605291,22.6507131 26.3098473,22.5033341 26.494071,22.5033341 L28.7808692,22.5033341 L28.7808692,22.5009101 C29.2719709,22.5009101 29.7175014,22.6987082 30.0389233,23.0235238 C30.2585374,23.2407138 30.416582,23.510747 30.4989979,23.8166554 C30.515481,23.8791945 30.5295402,23.96258 30.5557194,24.0217255 M14.606104,21.501254 C14.0859144,21.9332102 13.5497264,22.3438352 13.0009336,22.735553 C9.73629525,25.0601655 5.96843524,26.6624272 1.96253879,27.3823541 C1.05644893,27.5476707 0.18768862,26.9436108 0.02625046,26.0394601 C-0.1356725,25.1333702 0.468387404,24.2646099 1.37253806,24.1031718 C4.88636325,23.4705087 8.19123994,22.064106 11.0646453,20.0167986 C13.8401212,18.0407568 16.2103048,15.4645334 17.9701262,12.4069043 C18.1873163,12.0273065 18.5766101,11.4596065 18.92712,11.2307813 C19.4371289,10.8919066 20.115363,10.8506986 20.6840326,11.1789077 L28.8848972,15.9376975 C29.682392,16.4016504 29.9563036,17.4206985 29.4938051,18.2211021 C29.030337,19.0161729 28.0103193,19.2900845 27.2128245,18.827586 L20.7315429,15.0655436 C20.6888806,15.0408188 20.6321591,15.0044589 20.5875575,14.9903997 C20.555076,14.9807037 20.523564,14.9758557 20.4905977,14.9758557 C20.4057578,14.9758557 20.3277051,15.0102765 20.2719532,15.0679676 C20.2438349,15.0960859 20.2215341,15.1329307 20.2002029,15.1697754 C19.6926181,15.9590287 19.1510973,16.7211331 18.5741861,17.4478472 C18.4796503,17.5637143 18.3923864,17.7018821 18.4573495,17.854109 C18.4869223,17.9214961 18.5397654,17.9801569 18.6071525,18.011184 C18.6852052,18.047544 18.7569555,18.0407568 18.8369473,18.0407568 L22.8796885,18.04512 C23.8003224,18.04512 24.5473981,18.7897717 24.5473981,19.7099207 C24.5473981,20.0289186 24.4101999,20.5408667 24.2497313,20.8147782 L22.6959496,23.5039599 C22.6532873,23.5771645 22.5849306,23.6925468 22.5849306,23.7778714 C22.5849306,23.8612569 22.6212905,23.9393096 22.6770424,23.9945767 C22.7526711,24.0726294 22.8268454,24.0774774 22.9281685,24.0934758 C23.7140281,24.2321284 24.3088768,24.9176346 24.3088768,25.7422781 C24.3088768,26.6648512 23.5598619,27.4143509 22.6353497,27.4143509 L19.745946,27.4143509 C19.6751653,27.4143509 19.6077782,27.4119269 19.5408759,27.4027157 C19.236422,27.4143509 18.924696,27.3445398 18.6391492,27.179708 C17.8416544,26.7181791 17.5687124,25.6962222 18.0326653,24.8987274 L19.7503092,21.9259382 C19.7992739,21.8435223 19.844845,21.7809832 19.844845,21.6815994 C19.844845,21.5589451 19.7740644,21.4551981 19.6703173,21.404779 C19.591295,21.3655102 19.5205143,21.3727822 19.4395528,21.3727822 L14.9871563,21.3703582 C14.7743294,21.3703582 14.7651182,21.3703582 14.606104,21.501254 M22.8748406,4 C24.740833,4 26.2534067,5.51499775 26.2534067,7.38050538 C26.2534067,9.24843701 24.740833,10.7634348 22.8748406,10.7634348 C21.0073937,10.7634348 19.49482,9.24843701 19.49482,7.38050538 C19.49482,5.51499775 21.0073937,4 22.8748406,4" fill="currentColor"></path>
            </g>
        </g>
    </g>
</svg>