<?xml version="1.0" encoding="UTF-8"?>
<svg fill="rgba(255, 255, 255, 0.54)" width="16px" height="16px" viewBox="0 0 16 16" version="1.1" xmlns="http://www.w3.org/2000/svg" xmlns:xlink="http://www.w3.org/1999/xlink">
    <title>icon_tabletennis_selected</title>
    <g id="页面-1" stroke="none" stroke-width="1" fill="none" fill-rule="evenodd">
        <g id="Sports_新增玩法图标" transform="translate(-223.000000, -129.000000)">
            <g id="编组-12" transform="translate(211.000000, 117.000000)">
                <g id="icon_football_selected" transform="translate(12.000000, 12.000000)">
                    <rect id="矩形" x="0" y="0" width="16" height="16"></rect>
                    <g id="飞镖" transform="translate(0.062278, 0.000000)" fill="#FFFFFF" fill-rule="nonzero">
                        <path d="M15.6771807,4.37520601 L15.6571651,4.33209551 C15.2923935,3.57096931 14.5780745,3.03666792 13.7449066,2.90175083 C13.5201388,2.86373829 13.2914001,2.85494065 13.0643766,2.87557659 C13.0855212,2.64861937 13.077241,2.41988098 13.0397421,2.19504661 C12.904825,1.36187869 12.3705236,0.647559723 11.6093974,0.282788155 L11.5678266,0.26277257 C10.772608,-0.124186745 9.83542821,-0.0815526399 9.07862858,0.376010961 C8.32182896,0.833574561 7.84864683,1.64365001 7.82183232,2.5276133 L7.70943711,6.16583127 L7.70943711,6.17814857 C7.66012198,6.20595423 7.61325131,6.23788808 7.56932798,6.27360751 L2.35449757,10.4507067 L2.30368877,10.4953569 C1.59549102,11.2064296 1.45280462,12.3043572 1.95572547,13.1728266 L0.180496809,14.9480553 C0.0248276328,15.1037245 -0.0359681023,15.3306172 0.0210107688,15.5432653 C0.0779896398,15.7559133 0.244086671,15.9220104 0.456734717,15.9789892 C0.669382762,16.0359681 0.896275526,15.9751724 1.0519447,15.8195032 L2.84410963,14.0273383 C3.70343463,14.4752048 4.75390975,14.314456 5.43997739,13.6301058 L5.46461196,13.6054713 L9.66018708,8.35984761 C9.69623017,8.3174592 9.72867548,8.27213877 9.75718569,8.22435748 L9.76950298,8.22435748 L13.4108003,8.11658124 C14.2937271,8.08956341 15.1028953,7.6172269 15.5605666,6.86169614 C16.018238,6.10616538 16.0621313,5.17025493 15.6771807,4.37520601 L15.6771807,4.37520601 Z M9.05664012,2.56764447 C9.0703044,2.10122345 9.31959888,1.67356649 9.71873163,1.43184697 C10.1178644,1.19012745 10.612353,1.16734057 11.0320247,1.37132819 L11.0735955,1.39134378 C11.4731716,1.58583669 11.7541037,1.96146452 11.8277567,2.39971533 C11.9014098,2.83796614 11.7587003,3.28479175 11.4446537,3.59921706 L8.94116558,6.08576893 L9.05664012,2.56764447 Z M8.86726186,6.16737093 L8.96726186,6.26737093 L8.86726186,6.16737093 Z M4.73943182,12.5354071 L3.39838744,11.1943628 L3.88184088,10.807908 L5.12896596,12.055033 L4.73943182,12.5354071 Z M3.17359699,12.7555786 C2.84622408,12.4183166 2.79815158,11.8984925 3.05812246,11.5069139 L4.42226173,12.8710532 C4.03173633,13.1322428 3.5120007,13.086101 3.17359699,12.7601976 L3.17359699,12.7555786 Z M5.41534282,11.6885938 L4.24058179,10.5138328 L8.18519224,7.36214756 L8.57164704,7.74860237 L5.41534282,11.6885938 Z M13.3723088,6.87715447 L9.84956532,6.99262901 L12.3407362,4.50145818 C12.5957313,4.24345448 12.9433522,4.09819665 13.3061034,4.0980671 C13.3845315,4.09826973 13.4628083,4.10496445 13.5401318,4.11808269 C13.979207,4.18897903 14.3558408,4.47016056 14.5486095,4.87097672 L14.568625,4.91408722 C14.7690174,5.332825 14.7445792,5.82440935 14.503644,6.22120734 C14.2627087,6.61800534 13.837813,6.86643236 13.3738484,6.88177346 L13.3723088,6.87715447 Z" id="形状"></path>
                    </g>
                </g>
            </g>
        </g>
    </g>
</svg>