<?xml version="1.0" encoding="UTF-8"?>
<svg fill="rgba(255, 255, 255, 0.54)" width="32px" height="32px" viewBox="0 0 32 32" version="1.1" xmlns="http://www.w3.org/2000/svg" xmlns:xlink="http://www.w3.org/1999/xlink">
    <title>Figure skating</title>
    <g id="é¡µé¢-1" stroke="none" stroke-width="1" fill="none" fill-rule="evenodd">
        <g id="Outrights_icons" transform="translate(-403.000000, -243.000000)">
            <g id="Figure-skating" transform="translate(403.000000, 243.000000)">
                <polygon id="Clip-2" points="0 0 32 0 32 32 0 32"></polygon>
                <path d="M17.6066529,31.4141112 C17.4096492,31.4141112 17.2476568,31.2526413 17.2476568,31.0551151 C17.2476568,30.8544535 17.4096492,30.6929836 17.6066529,30.6929836 L23.798422,30.6929836 C23.9990836,30.6929836 24.1579407,30.8544535 24.1579407,31.0551151 C24.1579407,31.2526413 23.9990836,31.4141112 23.798422,31.4141112 L17.6066529,31.4141112 Z M22.7961591,2.1645474 C24.7390232,1.64669415 26.7378009,2.79788558 27.2577444,4.74388507 C27.7818683,6.68727178 26.6280641,8.68395923 24.6846774,9.20338015 C22.7386779,9.72698152 20.7404228,8.5721322 20.2189116,6.62874548 C19.6989681,4.68431366 20.8527724,2.68605854 22.7961591,2.1645474 L22.7961591,2.1645474 Z M2.44154783,6.350223 C2.39242755,5.90239229 2.50895759,5.47755405 2.74358535,5.1342346 C2.77493872,5.08720453 2.81204022,5.04278725 2.83451014,4.99053162 C2.85018682,4.95238502 2.85907028,4.91058052 2.85907028,4.86616324 C2.85907028,4.84055798 2.85279961,4.81390761 2.84757404,4.78830235 C2.83241991,4.71984748 2.78277707,4.64721217 2.75194625,4.58764075 L2.23879601,3.69825001 C1.74393523,2.83498707 2.04283741,1.73187082 2.90766801,1.23701005 C3.76988583,0.745284611 4.87247953,1.04261912 5.3673403,1.90744972 L6.96113688,4.68692644 C7.39851647,5.44985857 7.21666689,6.39725306 6.57340014,6.94698224 C6.48404302,7.02327546 6.38841523,7.07030552 6.34399794,7.18213256 C6.32518592,7.22289195 6.31734758,7.26469645 6.31734758,7.30911373 C6.31734758,7.38174905 6.34922351,7.45542948 6.37221598,7.52545202 C6.52062196,7.97328273 6.71396777,8.40804953 6.94075719,8.82034642 C7.42777962,9.69771837 8.09142606,10.4852106 8.89929803,11.1248195 C11.3631508,13.0812701 14.7806687,13.3315746 17.4822845,11.8281802 C17.6228521,11.7508419 17.7237055,11.6755938 17.7237055,11.4974021 C17.7237055,11.4723194 17.7210927,11.445669 17.7158672,11.4200638 C17.6907845,11.3129398 17.6254649,11.2612067 17.5543973,11.1911841 L11.6630981,5.29831726 C10.9571246,4.59234376 10.9571246,3.45160345 11.6630981,2.74824274 C12.3664588,2.04488202 13.5071991,2.04488202 14.2131726,2.74824274 L20.701231,9.23734631 C21.657509,10.1951919 22.0875728,10.2396092 23.4002341,10.3237408 C23.8067829,10.3488235 24.2101963,10.3441205 24.6109969,10.3096317 C25.7182936,10.2145265 26.7999851,9.8884514 27.7891841,9.34708312 C28.661853,8.8647637 29.7555633,9.18509068 30.2352699,10.0577596 C30.7123638,10.9278158 30.394127,12.021526 29.5219806,12.5012327 C28.0833833,13.2923828 26.5151919,13.7616384 24.9213954,13.9011609 C23.7623656,14.0004466 22.5845238,13.9283338 21.4338549,13.674894 C21.3763737,13.6623527 21.3115768,13.641973 21.253573,13.641973 C21.2075881,13.641973 21.1579452,13.6545143 21.1156182,13.6722812 C21.0455956,13.7041572 20.9541483,13.7919466 20.8945769,13.8415895 C20.3375319,14.2983036 19.748611,14.6912659 19.1304269,15.0272696 C19.0347991,15.0790027 18.9308105,15.118717 18.8681037,15.2127771 C18.8341375,15.2650327 18.8158481,15.3298297 18.8158481,15.3946267 C18.8158481,15.4338184 18.8210736,15.4724875 18.8341375,15.5090665 C18.8644458,15.593198 18.9485774,15.6731491 19.0086713,15.7431717 C19.4481411,16.2646828 19.8478967,16.8264308 20.1938289,17.4153517 C21.277088,19.2625881 21.8633962,21.4019334 21.8346556,23.6212298 C21.8268172,24.2305304 21.7724714,24.8319926 21.6778887,25.4183007 C21.6522834,25.5609586 21.6078661,25.699436 21.6946105,25.8342555 C21.7275315,25.8865111 21.7750841,25.9309284 21.8320428,25.9575788 C21.9208773,26.0019961 22.0175503,25.9910224 22.113178,25.9910224 L22.3535539,25.9910224 C23.3505913,25.9910224 24.1579407,26.7983718 24.1579407,27.7927964 C24.1579407,28.7914014 23.3505913,29.596138 22.3535539,29.596138 L19.0452503,29.596138 C18.0466453,29.596138 17.2429538,28.7914014 17.2429538,27.7927964 C17.2429538,27.603631 17.2706492,27.4212589 17.3229049,27.2509055 C17.449886,26.8480147 17.700713,26.4602779 17.8470288,25.9910224 C17.9170513,25.7767743 17.97401,25.5635714 18.0262656,25.3446203 C18.1621302,24.7593573 18.2347655,24.1631206 18.2426039,23.5789027 C18.2629836,22.0237753 17.8522543,20.5266516 17.0945478,19.23437 C16.5129427,18.2472613 15.7291083,17.3777276 14.7780559,16.6921338 C14.4420522,16.4491452 14.4650447,16.3843482 14.0417741,16.3968896 C11.4467598,16.4731828 8.82300482,15.6606078 6.6622347,13.9408752 C5.48439291,13.0112476 4.51766383,11.8600562 3.79914898,10.5677745 C3.08011158,9.27078991 2.6139914,7.841076 2.44154783,6.350223 L2.44154783,6.350223 Z" id="Fill-1" fill="currentColor"></path>
            </g>
        </g>
    </g>
</svg>