<?xml version="1.0" encoding="UTF-8"?>
<svg fill="rgba(255, 255, 255, 0.54)" width="32px" height="32px" viewBox="0 0 32 32" version="1.1" xmlns="http://www.w3.org/2000/svg" xmlns:xlink="http://www.w3.org/1999/xlink">
    <title>Freestyle skfing</title>
    <g id="页面-1" stroke="none" stroke-width="1" fill="none" fill-rule="evenodd">
        <g id="Outrights_icons" transform="translate(-488.000000, -243.000000)">
            <g id="Freestyle-skfing" transform="translate(488.000000, 243.000000)">
                <polygon id="Clip-2" points="0 0 32 0 32 32 0 32"></polygon>
                <path d="M16.1995376,6.96860175 C16.1775036,6.95106446 16.1577179,6.93802391 16.1356839,6.92453368 L16.0309098,6.86382767 C16.004379,6.85033744 15.9738012,6.83280015 15.9472704,6.82425634 C15.9171422,6.81076612 15.884316,6.80222231 15.8469931,6.80222231 C15.7332255,6.80222231 15.6369952,6.87237148 15.5929272,6.96410501 C15.5668461,7.01266982 15.5623493,7.07337583 15.5533558,7.12643738 C15.5272747,7.31485086 15.4661191,7.50236498 15.3635933,7.67773791 C15.324022,7.74788708 15.2754572,7.81803625 15.2255434,7.87919193 C15.2035093,7.91021945 15.1729315,7.94034762 15.1531458,7.9754222 C15.1288634,8.01499353 15.1158229,8.06310867 15.1158229,8.11572054 C15.1158229,8.1773259 15.1288634,8.20745407 15.1508975,8.26006595 C15.6671234,9.42921878 16.0439504,10.6460371 16.284526,11.8808423 C16.2957679,11.9505418 16.302513,12.0166439 16.3416347,12.0737525 C16.3919982,12.1564926 16.4796846,12.2091045 16.58266,12.2091045 C16.7139649,12.2091045 16.8232357,12.1259147 16.8560619,12.0076504 C16.8713508,11.9550386 16.8713508,11.8938829 16.8758476,11.841271 C16.9154189,10.3267684 16.7355492,8.79832593 16.3240974,7.30136063 C16.3155536,7.2617893 16.3065601,7.22671472 16.2957679,7.19208981 C16.2890228,7.14802174 16.284526,7.10890009 16.2669887,7.06932876 C16.2494515,7.03020711 16.2274174,6.99513253 16.1995376,6.96860175 M12.4888264,20.120222 C12.5414383,20.1071815 12.5900031,20.0721069 12.6273261,20.0329853 C12.6727431,19.9803734 12.6902804,19.9318086 12.7100661,19.8702032 C13.2244933,18.4078628 13.4898011,16.8848164 13.5091371,15.3658171 C13.5352182,13.338686 13.1327598,11.3160516 12.2923188,9.42472204 C12.0647837,8.91659023 11.8017243,8.4089081 11.4995433,7.90572271 C11.2063557,7.4151282 10.8803419,6.94207097 10.5277974,6.48700072 C10.0156185,5.82148296 10.1271377,4.86727438 10.7751182,4.34160528 C10.8034476,4.31957125 10.8340255,4.29843656 10.8560595,4.27190578 C10.9001276,4.22379065 10.9217119,4.15813822 10.9217119,4.08798905 C10.9217119,4.02233662 10.9046243,3.965228 10.8691001,3.91711287 C10.8254817,3.86045392 10.7751182,3.83841989 10.7202579,3.79884856 L5.12990871,0.576933175 C4.98331493,0.493743454 4.93250175,0.305329979 5.01569147,0.156487831 C5.10337793,0.00764568245 5.29179141,-0.0449661948 5.43838519,0.0427202673 L15.9279344,6.09308615 C16.0025803,6.13265748 16.0574406,6.17627587 16.1491741,6.17627587 C16.2274174,6.17627587 16.3002646,6.14120129 16.3528765,6.08858941 C16.4117838,6.03193046 16.4248244,5.9703251 16.4513552,5.90017593 C16.4774363,5.83047644 16.5084638,5.7598776 16.5493841,5.69467484 C16.6375203,5.54583269 16.7445427,5.41452784 16.8668541,5.30975376 C16.8978816,5.28322298 16.9239627,5.26118895 16.9477954,5.22611436 C16.9806216,5.18204629 17.004904,5.12134028 17.004904,5.05973492 C17.004904,4.99408249 16.9806216,4.92843007 16.9397013,4.88481167 C16.9064254,4.83669654 16.8758476,4.81915924 16.8272828,4.79712521 L9.54031292,0.576933175 C9.39147077,0.493743454 9.34110726,0.305329979 9.42879372,0.151991089 C9.51198344,0.00764568245 9.70489366,-0.0449661948 9.85148744,0.0427202673 L18.5176079,5.05523818 C18.5657231,5.08176896 18.6160866,5.10380299 18.6664501,5.12988409 L20.4044407,6.13670455 C20.4615494,6.1722288 20.5096645,6.20235697 20.5573299,6.23743156 L27.5011984,10.2566192 C27.5056951,10.2566192 27.5142389,10.2606663 27.5187357,10.2651631 C27.9036568,10.4976446 28.1622194,10.8605316 28.2719399,11.258943 C28.3812107,11.6658981 28.3326459,12.1169213 28.1055605,12.5108358 C28.0174243,12.659678 27.8294605,12.7122899 27.6828668,12.6250531 C27.5317762,12.5373666 27.4836611,12.3494028 27.5690992,12.2005607 C27.7116459,11.9550386 27.7372773,11.6703948 27.6698262,11.4208257 C27.6037241,11.1672094 27.4440898,10.9437214 27.2057625,10.799376 C27.2012657,10.799376 27.196769,10.7948792 27.1900239,10.7903825 L21.6567833,7.59050112 C21.5821374,7.54643305 21.5277268,7.50686172 21.4373423,7.50686172 C21.3280715,7.50686172 21.2318412,7.57296383 21.1837261,7.66020061 C21.161692,7.70426868 21.1508998,7.77396818 21.1419064,7.82208331 C21.1050331,7.97092546 21.0501728,8.11572054 20.9692315,8.25556921 C20.9341569,8.31717457 20.8945856,8.37383351 20.8532155,8.43094213 C20.7830664,8.51817892 20.7196623,8.56674373 20.7196623,8.69355184 C20.7196623,8.82035996 20.7830664,8.89050913 20.8860418,8.95166482 L22.9788253,10.160389 C22.9981613,10.164436 23.0134502,10.1734295 23.0269405,10.1864701 C23.4118615,10.4140052 23.6681758,10.7777916 23.7756479,11.1757532 C23.8849188,11.5741645 23.8413004,12.0166439 23.6223091,12.4060617 C23.5737442,12.5108358 23.4667218,12.5854817 23.342162,12.5854817 C23.1712859,12.5854817 23.0309875,12.4456331 23.0309875,12.2747569 C23.0309875,12.222145 23.0485248,12.1695331 23.0750556,12.1169213 C23.219401,11.8718488 23.2459318,11.5917018 23.178031,11.3380856 C23.1101302,11.079523 22.9437507,10.8519878 22.6986783,10.7116895 L22.6986783,10.7071928 L20.3738629,9.37211016 C20.3037137,9.32849177 20.2555986,9.29341718 20.1679121,9.29341718 C20.0456007,9.29341718 19.9381286,9.37211016 19.9008057,9.48183066 C19.8792213,9.54298634 19.8832684,9.58210799 19.8877651,9.64326368 C20.0676348,11.5125592 19.9619614,13.3863514 19.5855841,15.1994377 C19.1305138,17.379458 18.2896231,19.4726912 17.0773016,21.3766117 C17.0314348,21.4512576 16.9896151,21.5079165 16.9896151,21.6041468 C16.9896151,21.7269078 17.0552676,21.8011041 17.1559946,21.8667565 C17.3529519,21.9895175 17.5454124,22.1208224 17.7293291,22.256624 C20.1027094,23.9685335 21.8402503,26.5559587 22.4225784,29.6375757 C22.5759173,30.4780167 22.0241671,31.2838328 21.1837261,31.4461652 C20.343285,31.6035512 19.5352206,31.0477539 19.3778346,30.2068632 C18.9510938,27.9346597 17.6681734,26.0262425 15.9238874,24.7649065 C14.1746549,23.5040201 11.9613586,22.8870672 9.66757071,23.1982417 C9.07849755,23.2769347 8.50066625,23.4122866 7.94486898,23.6092439 C7.38862204,23.8062012 6.85261043,24.05622 6.34223026,24.3624481 C5.60656332,24.7999811 4.65685149,24.5639021 4.22111722,23.8282352 C3.78133589,23.097065 4.01741483,22.1469035 4.75308176,21.7093705 C5.44063356,21.2929723 6.16685733,20.9521192 6.9245583,20.6895095 C7.6800109,20.4219534 8.4615446,20.2339896 9.25611884,20.1287658 C10.2980139,19.9889172 11.3336135,19.9889172 12.3314405,20.120222 C12.3970929,20.1247188 12.4236237,20.1328129 12.4888264,20.120222 M13.8373992,30.1367141 C12.3404339,31.0036858 10.4225736,30.4870102 9.55605151,28.9900449 C8.68907972,27.4885829 9.2012586,25.5707226 10.7027206,24.7082475 C12.2041827,23.8412758 14.1197946,24.3539043 14.984518,25.8508696 C15.8514898,27.3523316 15.3393109,29.2701919 13.8373992,30.1367141" id="Fill-1" fill="currentColor"></path>
            </g>
        </g>
    </g>
</svg>