<?xml version="1.0" encoding="UTF-8"?>
<svg fill="rgba(255, 255, 255, 0.54)" width="32px" height="32px" viewBox="0 0 32 32" version="1.1" xmlns="http://www.w3.org/2000/svg" xmlns:xlink="http://www.w3.org/1999/xlink">
    <title>icon_Ice hockey</title>
    <g id="页面-1" stroke="none" stroke-width="1" fill="none" fill-rule="evenodd">
        <g id="Outrights_icons" transform="translate(-158.000000, -119.000000)">
            <g id="icon_Ice-hockey" transform="translate(158.000000, 119.000000)">
                <rect id="矩形" x="0" y="0" width="32" height="32"></rect>
                <g id="编组-5" transform="translate(0.000000, 1.000000)" fill="currentColor">
                    <path d="M25.0964722,7.53323345 C27.1776042,7.53323345 28.863359,5.84531816 28.863359,3.76634666 C28.863359,1.68521463 27.1776042,0 25.0964722,0 C23.0153401,0 21.3301255,1.68521463 21.3301255,3.76634666 C21.3301255,5.84531816 23.0153401,7.53323345 25.0964722,7.53323345" id="Fill-1"></path>
                    <path d="M31.1505517,11.7649046 C29.7726727,10.4280757 28.1112239,9.46015755 26.3179827,8.91732399 C24.5301428,8.3707095 22.6159119,8.24701907 20.7254467,8.59162386 C19.263307,8.85844951 17.8805668,9.39048041 16.6447427,10.1450461 C15.7335386,10.705704 14.8957924,11.3835708 14.1612117,12.1700043 L0.549322676,25.7230188 C-0.180396862,26.4446364 -0.183097526,27.6237465 0.541220683,28.3507653 C1.26391849,29.0804849 2.44086807,29.0831855 3.16788694,28.3588673 L13.9327355,17.6453314 C14.2940844,17.2877634 14.3308134,17.35528 14.8261153,17.4417013 C16.1543021,17.6653163 17.369061,18.2513605 18.3510226,19.0993692 C19.1293541,19.7756155 19.7640102,20.6128215 20.198277,21.5737179 C20.2166416,21.6115272 20.2242034,21.6606793 20.2242034,21.7065906 C20.2242034,21.789231 20.1955764,21.8670101 20.1469644,21.9248043 L17.5699904,24.5093402 C17.4819487,24.5946812 17.3949873,24.6843433 17.3004641,24.7615823 C17.0379595,24.9749348 16.7138798,25.1196904 16.3617131,25.162901 C16.2396431,25.1796451 16.1029895,25.1796451 15.979299,25.1796451 L10.7664765,25.1796451 C9.73698318,25.1796451 8.90355813,26.0109096 8.90355813,27.0425635 C8.90355813,28.0709765 9.73698318,28.9054818 10.7664765,28.9054818 L13.1841113,28.9054818 C13.3434505,28.9054818 13.5027897,28.9108831 13.6605085,28.8925186 C14.0321199,28.8541692 14.3713234,28.7056326 14.646251,28.4798571 C14.7461756,28.3993773 14.8396186,28.2994527 14.9314412,28.2087104 L20.1361618,22.9937273 C20.198277,22.931612 20.2809174,22.8959633 20.3754406,22.8959633 C20.539641,22.8959633 20.6806157,23.0147925 20.7092428,23.1708909 L20.7119434,23.1708909 L20.7146441,23.1816936 C20.8172693,23.7061626 20.8631806,24.2225296 20.8529181,24.7248532 C20.8431957,25.219615 20.7762192,25.7305807 20.6503683,26.2539694 C20.5990557,26.4694825 20.539641,26.8270504 20.539641,27.0425635 C20.539641,28.0709765 21.3746865,28.9054818 22.4025594,28.9054818 L25.6660423,28.9054818 C26.6949955,28.9054818 27.5300409,28.0709765 27.5300409,27.0425635 C27.5300409,26.0109096 26.6949955,25.1796451 25.6660423,25.1796451 L25.1518358,25.1796451 C24.9503662,25.1796451 24.7402545,25.2142136 24.6165641,25.0154447 C24.5404054,24.890674 24.5652515,24.2095665 24.554989,23.9967541 C24.5274422,23.4798469 24.465867,22.9688812 24.368103,22.4703385 C24.1963407,21.5964035 23.9241137,20.7613581 23.5611444,19.9803259 C23.5254957,19.9025468 23.4968686,19.8544749 23.4968686,19.7675135 C23.4968686,19.7189016 23.5071311,19.6767712 23.522795,19.6330205 C23.5557431,19.5595624 23.6437848,19.476922 23.6977981,19.4202081 L28.318635,14.7885685 C28.3699476,14.741577 28.4396247,14.6654182 28.4990393,14.6362511 C28.5449506,14.6135655 28.5962633,14.6006023 28.6524371,14.6006023 C28.6897063,14.6006023 28.7248149,14.6060036 28.757763,14.6162661 C28.814477,14.6362511 28.8868548,14.6864834 28.940868,14.7161907 C29.6597849,15.11967 30.582872,15.0121836 31.1862005,14.3931913 C31.9024167,13.6580704 31.8856726,12.481661 31.1505517,11.7649046 M27.8492595,14.189021 C27.8233331,14.2338521 27.7666191,14.2878653 27.7288098,14.3262148 L23.5357582,18.5262882 C23.4201698,18.6472779 23.3018806,18.8039165 23.1193157,18.8039165 C23.0577406,18.8039165 23.0010266,18.7877125 22.949714,18.7601657 C22.8362861,18.6958899 22.7396023,18.5106243 22.6666844,18.4031379 C22.1308725,17.619405 21.4956763,16.90805 20.7816206,16.2912182 C19.9800634,15.5971475 19.0753408,15.0175849 18.0971601,14.5795371 C17.9880532,14.5282245 17.7752409,14.4493651 17.7055637,14.3499806 C17.6645136,14.2970476 17.6423682,14.2289909 17.6423682,14.1539124 C17.6423682,14.0998991 17.6569518,14.0431851 17.6807176,13.9972738 C17.7320303,13.8973493 17.9313393,13.7633963 18.019381,13.6964198 C18.202486,13.5635471 18.389372,13.437156 18.5800389,13.3188669 C19.4410107,12.7943979 20.388944,12.4276477 21.3827885,12.2450827 C22.685589,12.0085045 24.0078343,12.0938455 25.2414979,12.4681576 C26.091667,12.7274214 26.9013262,13.1282 27.6380675,13.6553697 C27.7207078,13.717485 27.8076692,13.7682575 27.8546608,13.8633209 C27.8795069,13.9092322 27.8930102,13.9632455 27.8930102,14.02212 C27.8930102,14.0815346 27.8768062,14.1382485 27.8492595,14.189021" id="Fill-3"></path>
                    <path d="M20.6883936,30.788223 C20.4836833,30.788223 20.3167822,30.621322 20.3167822,30.4171517 C20.3167822,30.2124414 20.4836833,30.0455403 20.6883936,30.0455403 L27.0722243,30.0455403 C27.2801755,30.0455403 27.4470765,30.2124414 27.4470765,30.4171517 C27.4470765,30.621322 27.2801755,30.788223 27.0722243,30.788223 L20.6883936,30.788223 Z" id="Fill-5"></path>
                </g>
            </g>
        </g>
    </g>
</svg>