<?xml version="1.0" encoding="UTF-8"?>
<svg fill="rgba(255, 255, 255, 0.54)" width="32px" height="32px" viewBox="0 0 32 32" version="1.1" xmlns="http://www.w3.org/2000/svg" xmlns:xlink="http://www.w3.org/1999/xlink">
    <title>Luge</title>
    <g id="页面-1" stroke="none" stroke-width="1" fill="none" fill-rule="evenodd">
        <g id="Outrights_icons" transform="translate(-158.000000, -243.000000)">
            <g id="Luge" transform="translate(158.000000, 243.000000)">
                <rect id="矩形" x="0" y="0" width="32" height="32"></rect>
                <path d="M5.6572146,4 C7.67513283,4 9.315478,5.63929636 9.315478,7.66088544 C9.315478,9.67775486 7.67513283,11.3165268 5.6572146,11.3165268 C3.63667433,11.3165268 2,9.67775486 2,7.66088544 C2,5.63929636 3.63667433,4 5.6572146,4 L5.6572146,4 Z M5.47472095,15.7126309 C4.61154699,15.2123466 4.3142082,14.1142383 4.81082166,13.2515887 C5.30743511,12.3884148 6.40764105,12.0926492 7.27029061,12.5824454 L28.6613776,24.9332796 C29.5245515,25.4335639 29.8218903,26.5311478 29.3278989,27.3937974 C28.8312855,28.2622154 27.7310795,28.557981 26.8652835,28.0576967 L5.47472095,15.7126309 Z M4.79561385,19.1485457 C4.62203513,19.0462864 4.56225273,18.8265598 4.66398769,18.6582252 C4.76362502,18.4794024 4.98335157,18.4232908 5.15535707,18.5255502 L6.08565513,19.0667382 L20.4454927,27.4095296 C20.7328678,27.5778643 21.061671,27.6088043 21.3579609,27.5264724 C21.6552997,27.4504334 21.9222229,27.2564028 22.0895087,26.9700765 C22.1886217,26.7964978 22.4109702,26.7351422 22.5808781,26.8374015 C22.7555057,26.9396609 22.8131904,27.1588631 22.7146019,27.3271977 C22.4482031,27.7918223 22.0218602,28.1038445 21.5456987,28.2260314 C21.0695371,28.3534623 20.54513,28.2973507 20.0841763,28.0372448 L5.72591192,19.6897338 L4.79561385,19.1485457 Z" id="Fill-1" fill="currentColor"></path>
            </g>
        </g>
    </g>
</svg>