<?xml version="1.0" encoding="UTF-8"?>
<svg fill="rgba(255, 255, 255, 0.54)" width="16px" height="16px" viewBox="0 0 16 16" version="1.1" xmlns="http://www.w3.org/2000/svg" xmlns:xlink="http://www.w3.org/1999/xlink">
    <title>icon_tabletennis_selected</title>
    <g id="页面-1" stroke="none" stroke-width="1" fill="none" fill-rule="evenodd">
        <g id="Sports_新增玩法图标" transform="translate(-112.000000, -129.000000)">
            <g id="编组-13" transform="translate(100.000000, 117.000000)">
                <g id="编组-5备份" transform="translate(11.850000, 6.000000)">
                    <g id="icon_football_selected" transform="translate(0.000000, 5.850000)">
                        <rect id="矩形" x="0.15" y="0.15" width="16" height="16"></rect>
                        <g id="拳击手套" fill="#FFFFFF" fill-rule="nonzero">
                            <path d="M9.84109744,0 C11.2466384,0 12.4268767,0.55557569 13.3779521,1.34853672 C14.6790179,2.43330294 15.5483536,3.96304267 15.9779407,5.09613944 C16.296828,7.25847558 15.9122232,7.8918696 15.6648708,8.19407679 C15.6152776,8.61758877 15.6239639,8.80918688 15.6300978,8.94279927 C15.6333222,9.9119266 15.2122569,10.6296343 14.5617745,11.2080913 C13.874802,11.8189981 12.9281515,12.2726657 11.9652941,12.5858023 L11.7588081,12.6507581 L11.2730363,12.7870456 L10.8589829,12.8861354 L10.4562835,12.9680663 L10.1970294,13.0132756 C10.1112904,13.0272312 10.0269188,13.0399684 9.94064858,13.0518691 C9.41069221,13.0880407 9.07041125,13.1036148 8.83942731,13.1056989 C8.60850109,13.1040055 8.49784019,13.0954063 8.42232132,13.0830963 L8.39548277,13.0783123 L5.97047735,15.4575479 C5.60962678,15.8844326 5.0349811,16.1 4.53089672,16.1 C4.10264947,16.1 3.62141751,15.9449657 3.22113726,15.6313822 L3.1228312,15.5496811 L0.641469994,13.0936414 C0.212780448,12.6684218 0,12.1719168 0,11.6053727 C0,11.1195575 0.156524709,10.6853016 0.472615155,10.3019435 L0.554963812,10.2071639 L2.91418601,7.86179732 C2.78858068,7.55951294 2.72147788,7.28764245 2.72147788,7.06239648 C2.72147788,6.99766241 2.72871097,6.92051022 2.74346547,6.83237571 L2.76073778,6.7406336 L3.37686863,5.12813993 L3.46034053,4.96446236 L3.46034053,4.96446236 L3.54903502,4.79702968 L3.78859009,4.37291609 L4.19809481,3.72390737 C5.44618588,1.87044128 7.41937651,0 9.84109744,0 Z M3.38371459,8.7398065 L1.25407883,10.8556451 L1.1934208,10.9264112 C1.0410394,11.1167712 0.963737349,11.3228627 0.963737349,11.6053727 C0.963737349,11.9245834 1.0632893,12.1460444 1.31943045,12.4230662 L1.31943045,12.4230662 L3.78208494,14.8584701 L3.85815641,14.9136731 C4.04225049,15.0338774 4.27036887,15.0938738 4.49770798,15.0938738 C4.75777525,15.0938738 5.01826665,15.0144389 5.28837813,14.7911015 L5.28837813,14.7911015 L7.26645115,12.5906869 L7.10391985,12.4913938 C5.74273187,11.6348104 4.22368998,10.062566 3.38371459,8.7398065 L3.38371459,8.7398065 Z M2.50638271,11.8841623 C2.58680795,11.8841623 2.66752361,11.904901 2.74350924,11.9493179 L2.79953314,11.9871161 L4.17216287,13.3432754 C4.26896488,13.4392939 4.31580155,13.5597061 4.31580155,13.6793401 C4.31580155,13.798974 4.26896488,13.9193862 4.17216287,14.0154047 C3.79621717,14.1289678 3.6327786,14.1099209 3.53635357,14.0477109 L3.51522501,14.0326293 L2.16815271,12.6986 C2.0713507,12.6025815 2.02451403,12.4821693 2.02451403,12.3625354 C2.02451403,12.2429014 2.07135071,12.1224892 2.16815272,12.0264707 C2.26478986,11.9306158 2.38595679,11.8841623 2.50638271,11.8841623 Z M3.1701578,10.5673576 C3.25058303,10.5673576 3.3312987,10.5880963 3.40729605,10.6325247 L3.46333112,10.6703341 L5.49971306,12.6848731 C5.59651506,12.7808916 5.64335174,12.9013038 5.64335174,13.0209377 C5.64335174,13.1400795 5.5969188,13.2600469 5.50085993,13.3558663 L5.44868022,13.401648 L2.83625495,11.3860386 C2.73651296,11.2893414 2.68828911,11.1671291 2.68828911,11.0457307 C2.68828911,10.9260967 2.73512579,10.8056845 2.8319278,10.709666 C2.92856494,10.6138111 3.04973188,10.5673576 3.1701578,10.5673576 Z M9.84109744,0.956746046 C7.71572777,0.956746046 6.00866778,2.73393928 4.85651727,4.49691066 L4.85651727,4.49691066 L4.41558893,5.24358099 L4.2350818,5.58851891 L3.68529291,7.07115887 L3.6875232,7.11111599 C3.70148002,7.26230252 3.78023743,7.46820187 3.96440323,7.83656111 C4.10001834,8.0853999 4.28178576,8.366021 4.60533191,8.8080842 L4.60533191,8.8080842 L4.88301361,9.16328788 L5.50236826,9.87815583 L5.81665291,10.2080795 L5.90189903,10.2939641 C6.93047084,11.3197944 8.16931572,12.1655259 10.483678,11.986008 L10.483678,11.986008 L11.0060247,11.8665291 L11.4082334,11.7567393 L11.8570944,11.6142288 L12.0366987,11.5506963 C12.752481,11.2894419 13.4324492,10.9424354 13.9254448,10.5003947 C14.3758209,10.0965684 14.6694295,9.6126824 14.6694295,9.03760352 C14.6694295,8.56721686 14.4271462,7.9710575 14.0398943,7.52292048 C13.7217696,7.15477923 13.3024817,6.88236716 12.8280854,6.88236716 C12.6276795,6.88236716 12.4503658,6.96120811 12.2994374,7.07568973 C12.0963939,7.22970148 11.9395953,7.44824115 11.8374813,7.64859805 C11.7354352,7.92131368 11.6707947,8.269111 11.7317583,8.60774423 C11.7779244,8.86418157 11.8975845,9.11517697 12.1310463,9.32101881 C12.2345962,9.423339 12.2811026,9.5436662 12.2811026,9.66308575 C12.2811026,9.7827197 12.234266,9.90313191 12.1374639,9.99915037 C12.0408268,10.0950053 11.9196599,10.1414588 11.7992339,10.1414588 C11.678808,10.1414588 11.5576411,10.0950053 11.461004,9.99915036 C11.3138571,9.85319457 11.1880603,9.68906133 11.080663,9.5125206 C10.4274913,9.46153632 9.52877172,8.84883028 8.60680777,7.95793559 L8.60680777,7.95793559 L8.40554558,7.75309802 L8.11388789,7.43764961 L7.92745189,7.22350124 L7.75021307,7.00964196 L7.44551603,6.61125461 L7.41965435,6.57522093 C7.38324105,6.52436636 7.3387639,6.46179187 7.2821476,6.38172138 C6.91871713,5.84629684 6.70412842,5.37371115 6.70412842,5.08718945 C6.70412842,4.22428576 7.54579083,2.59402743 8.55976285,2.0533098 C8.64798072,2.11856515 8.76828128,2.24942891 8.94755395,2.53607338 C8.92041131,2.63030366 8.86062901,2.73209484 8.73378145,2.83785936 C8.35194841,3.09072155 7.60148824,4.46431778 7.60148824,5.08718945 C7.60148824,5.22892817 7.77467659,5.51528308 8.26340731,6.19505226 L8.26340731,6.19505226 L8.50417079,6.49516839 L8.67802223,6.70011359 L8.86080312,6.90636715 L9.16430023,7.22967298 L9.28047143,7.34745766 C9.78643447,7.85329424 10.3222622,8.29476962 10.7575484,8.47558968 C10.7217151,8.06533119 10.7881297,7.64571197 10.9661585,7.26310508 C11.1397401,6.84960256 11.4036438,6.51814837 11.7190947,6.28949246 C12.0456634,6.05277775 12.4277738,5.92562111 12.8280854,5.92562111 C13.7850548,5.92562111 14.5730679,6.55505377 15.1222036,7.22596231 C15.2289477,7.01070307 15.3332046,6.72037489 15.3332046,6.40399414 C15.3332046,6.33571058 15.3180363,6.24595761 15.1646174,5.68154308 C15.124269,5.56456178 15.0748696,5.43438984 14.9296447,5.09085296 C14.5004848,4.1280906 13.7358268,2.89501625 12.6594529,2.02485247 C11.881496,1.39593542 10.9394045,0.956746046 9.84109744,0.956746046 Z" id="形状"></path>
                        </g>
                    </g>
                </g>
            </g>
        </g>
    </g>
</svg>