<?xml version="1.0" encoding="UTF-8"?>
<svg fill="rgba(255, 255, 255, 0.54)" width="32px" height="33px" viewBox="0 0 32 33" version="1.1" xmlns="http://www.w3.org/2000/svg" xmlns:xlink="http://www.w3.org/1999/xlink">
    <title>Nordic combined</title>
    <g id="页面-1" stroke="none" stroke-width="1" fill="none" fill-rule="evenodd">
        <g id="Outrights_icons" transform="translate(-563.000000, -243.000000)">
            <g id="Nordic-combined-2" transform="translate(563.000000, 243.000000)">
                <g id="Nordic-combined" transform="translate(0.000000, -0.000000)">
                    <rect id="矩形" x="0" y="-2.84217094e-14" width="32" height="32"></rect>
                    <path d="M16.1998259,14.1091504 C17.8369072,13.9000374 19.5433943,14.2528875 21.0080806,15.2165087 C21.9761796,15.8487732 22.0634966,16.4505886 21.7670666,17.5095868 C21.6103438,18.0719977 21.4312321,18.6254529 21.230627,19.1663704 C21.2068947,19.2357762 21.1719679,19.3101076 21.1719679,19.3844389 C21.1719679,19.4542925 21.1961479,19.5151905 21.2351047,19.5626551 C21.2785393,19.6199709 21.3483929,19.6508677 21.4052609,19.6853467 L21.4052609,19.6853467 L24.0905937,21.2283943 C24.6203167,21.5337798 25.0170492,21.7473706 25.2503422,22.3442605 C25.4115428,22.763382 25.3896016,23.2514614 25.1500396,23.6701351 L25.1500396,23.6701351 L23.8904363,25.8539551 C23.8617784,25.9063452 23.820135,25.967691 23.8008805,26.028589 C23.7941638,26.0500824 23.789686,26.0760536 23.789686,26.1069504 C23.789686,26.1942674 23.8290906,26.268151 23.8904363,26.3205411 C23.9576032,26.3814391 24.0252179,26.3859169 24.1035793,26.4074103 C24.7488293,26.5945821 25.2198932,27.1883375 25.2198932,27.8944856 C25.2198932,28.098673 25.1804886,28.2997259 25.1061573,28.4828676 C25.0716783,28.5657068 25.0170492,28.6436204 25.0170492,28.735863 C25.0170492,28.8531812 25.0846639,28.953036 25.1872053,28.9973661 C25.2566111,29.0278151 25.3242258,29.0233373 25.3985572,29.0233373 L29.9802355,29.0233373 C30.2636799,29.0193073 30.521153,28.9060191 30.7083248,28.7224296 C30.8914665,28.5352578 31.0047547,28.2777847 31.0047547,27.9938926 C31.0047547,27.824632 31.1444619,27.6853726 31.3164091,27.6853726 C31.4888042,27.6853726 31.6240336,27.824632 31.6240336,27.9938926 C31.6240336,28.4474931 31.4408918,28.857659 31.142223,29.1585667 C30.845793,29.4549966 30.433836,29.6376906 29.9802355,29.6376906 L29.9802355,29.6376906 L13.3076854,29.6373921 C13.2645327,29.6375911 13.2180632,29.6397802 13.1831364,29.651124 C13.1307462,29.6645574 13.0850727,29.6990364 13.0393992,29.7339632 C12.4031048,30.1696525 11.7444213,30.5753406 11.0732001,30.9411763 C11.0208099,30.9675953 10.9728975,30.9940143 10.9245373,31.0240155 C10.8291603,31.0723757 10.7199022,31.116258 10.6652731,31.2071572 C10.637063,31.2510396 10.6240774,31.3034298 10.6240774,31.35582 C10.6240774,31.473586 10.6961699,31.5779185 10.8027413,31.6173231 C10.8658782,31.6437421 10.9290151,31.6392643 10.9943909,31.6392643 L18.3773769,31.6392643 C18.6608212,31.6392643 18.9160555,31.5210506 19.1032272,31.3383566 C19.286369,31.150737 19.404135,30.8937117 19.404135,30.6098196 C19.404135,30.4401112 19.5433943,30.3008518 19.7113116,30.3008518 C19.8837067,30.3008518 20.022966,30.4401112 20.022966,30.6098196 C20.022966,31.0638678 19.8357943,31.477616 19.5393643,31.7740459 C19.2429344,32.0704758 18.8287385,32.2536176 18.3773769,32.2536176 L18.3773769,32.2536176 L8.0036726,32.2536176 C7.9342668,32.2585432 7.86441322,32.2585432 7.79679854,32.2536176 L7.79679854,32.2536176 L0.743378145,32.2536176 C0.570983094,32.2536176 0.433514832,32.1139104 0.433514832,31.9486799 C0.433514832,31.7780759 0.570983094,31.6392643 0.743378145,31.6392643 L0.743378145,31.6392643 L6.12702933,31.6392643 C6.20539071,31.6392643 6.25598978,31.6437421 6.32987337,31.6043375 C6.41495145,31.5519473 6.47584944,31.4606004 6.47584944,31.35582 C6.47584944,31.2904442 6.45211714,31.246114 6.43465374,31.1856638 C6.1861362,30.4186178 6.57839091,29.5772404 7.34319805,29.2808105 C8.12188635,28.9839327 8.87594678,28.6351126 9.59955822,28.2383801 C10.3321252,27.8376176 11.0337955,27.3970027 11.6965089,26.9129532 C13.459864,25.6318565 14.9796272,24.0534343 16.1998259,22.2658991 C17.1419537,20.8844998 17.9045219,19.3714533 18.4579772,17.7800455 C18.5018596,17.6448161 18.5452942,17.5400358 18.4449916,17.4092842 C18.3773769,17.3219672 18.2618498,17.295996 18.1570695,17.2700248 C17.6430188,17.1303177 17.1065791,17.0958387 16.5880506,17.1612144 C15.6006971,17.2874882 14.6608083,17.7755677 13.9766014,18.5994817 C13.7410695,18.8829261 13.5516588,19.183386 13.4097127,19.4977271 C13.2897079,19.7547525 13.1983609,20.025659 13.135224,20.3126855 C13.1267162,20.3610457 13.1132828,20.4044803 13.1132828,20.4564227 C13.1132828,20.5271719 13.139254,20.5876221 13.1813453,20.6395645 C13.2180632,20.6879246 13.2614978,20.7098658 13.313888,20.735837 L13.313888,20.735837 L13.871821,21.0586859 C14.020036,21.1460029 14.0724262,21.3331747 13.9851092,21.4809419 C13.89824,21.6300524 13.7106205,21.6779648 13.5624055,21.5946778 L13.5624055,21.5946778 L13.1025361,21.3291447 L13.1025361,21.3291447 L13.0000444,21.2739849 L13.0000444,21.2739849 L12.9480522,21.2548133 C12.9234244,21.2503355 12.9064088,21.2503355 12.8844676,21.2503355 C12.8365552,21.2503355 12.7931206,21.2588433 12.7559549,21.2807845 C12.7017736,21.3112335 12.6466967,21.3640715 12.5987843,21.4025805 C12.2656365,21.703936 11.8008415,21.852151 11.3239565,21.7733418 C10.484818,21.6336346 9.91613822,20.8406174 10.0576365,19.99924 C10.0616665,19.968791 10.0656965,19.938342 10.0701743,19.911923 C10.0943544,19.794157 10.1248034,19.7113179 10.0486809,19.5980297 C10.0003207,19.5281761 9.92867605,19.4932493 9.85434467,19.4542925 L9.85434467,19.4542925 L7.32618244,17.9891585 C7.18020637,17.9063193 7.1273684,17.7191475 7.21244648,17.5709326 C7.29752456,17.4227176 7.48514411,17.3748052 7.63335907,17.4576444 L7.63335907,17.4576444 L9.93494496,18.7871013 C9.98330513,18.8135203 10.0267397,18.8435215 10.0791299,18.8569549 C10.1010711,18.8609849 10.1230123,18.8654627 10.1489835,18.8654627 C10.2492861,18.8654627 10.3406331,18.8090425 10.3885454,18.7302333 C10.4104866,18.6953065 10.4234722,18.6518719 10.4409356,18.6124673 C10.4910869,18.4776857 10.545716,18.3469342 10.6110918,18.2161826 C10.8725949,17.6403384 11.2039516,17.1083765 11.5984453,16.6332826 C12.7971506,15.1860597 14.4561731,14.3272189 16.1998259,14.1091504 Z M19.9011701,22.4145618 C19.8313165,22.4145618 19.7614629,22.440533 19.7135505,22.4844154 C19.6656381,22.52382 19.6441447,22.5757624 19.6132479,22.6277048 C18.3491668,24.8079425 16.7228322,26.7522004 14.8045454,28.3780873 C14.7306618,28.4434631 14.6084181,28.5312278 14.5627446,28.618097 C14.5475201,28.652576 14.5390123,28.6964584 14.5390123,28.735863 C14.5390123,28.8401956 14.5931936,28.9315426 14.6782717,28.9839327 C14.7593197,29.0322929 14.8309644,29.0233373 14.9227592,29.0233373 L19.6526525,29.0233373 C19.8357943,29.0233373 20.0014726,28.9449759 20.0014726,28.735863 C20.0014726,28.6301871 19.9356491,28.5567512 19.8881845,28.469882 C19.5957845,27.942398 19.5084676,27.2971479 19.8183309,26.761156 L19.8183309,26.761156 L21.5601926,23.7355109 C21.6013883,23.6656573 21.6340762,23.617745 21.6340762,23.530428 C21.6340762,23.46953 21.6188517,23.4216176 21.5879549,23.3737052 C21.5489981,23.3123594 21.5055635,23.290866 21.4464566,23.2550437 L21.4464566,23.2550437 L20.1192386,22.4929232 C20.0690873,22.466952 20.022966,22.4320252 19.9643069,22.4230696 C19.9446046,22.4145618 19.9231112,22.4145618 19.9011701,22.4145618 Z M11.3571002,4.5513338 L11.5243826,4.55344938 C12.0411199,4.60539179 12.5247216,4.9152551 12.7687614,5.42079799 C13.1395227,6.18784402 12.8148827,7.1080306 12.0496277,7.47834412 C11.3587042,7.80970085 10.7044986,8.18046215 10.0919364,8.58570247 C9.47086643,8.99139056 8.87128988,9.44454327 8.29634119,9.94157835 C7.32348457,10.7847469 6.44902046,11.7245938 5.69514719,12.7434204 L5.37950647,13.1848442 L5.30338398,13.2941024 C5.25771049,13.363956 5.22726149,13.4118684 5.22726149,13.4947075 C5.22726149,13.6429225 5.30562288,13.7082983 5.41846327,13.7691963 C5.64548741,13.89144 5.84609256,14.0745818 5.98982973,14.3101137 C6.14923918,14.5626613 6.22312278,14.8461056 6.22312278,15.12955 C6.22312278,15.2079113 6.21013717,15.2688093 6.24730286,15.3476185 C6.29073746,15.4434433 6.39104003,15.5132969 6.50656711,15.5132969 C6.53029941,15.5132969 6.5522406,15.5132969 6.57418179,15.5043413 C6.60612338,15.4986694 6.64204524,15.4810568 6.67650766,15.46225 L6.72642677,15.4344877 L19.539633,8.13254976 C19.7859116,7.9928426 19.9489033,7.76178846 20.0187569,7.5092409 C20.0863716,7.25176777 20.0604004,6.97280123 19.9184543,6.72876149 C19.8360629,6.58054652 19.8835275,6.39292697 20.0321903,6.31008779 C20.1777186,6.22321859 20.367577,6.275161 20.4504162,6.42337597 C20.6769926,6.81563068 20.724905,7.26027558 20.6160946,7.67044147 C20.5204937,8.02502674 20.3066161,8.34978572 19.9906605,8.57722352 L19.8490485,8.66854165 L0.462441378,19.7116761 C0.313778632,19.7940675 0.126606862,19.7466029 0.039289888,19.5983879 C-0.031715124,19.4671246 -0.00336794931,19.3138196 0.0992348804,19.220812 L0.156608079,19.1797142 L1.01992667,18.6822314 C1.08530246,18.6517824 1.13321485,18.6253634 1.17933612,18.5604354 C1.20754622,18.512523 1.22500962,18.4601328 1.22500962,18.4032648 C1.22500962,18.3423668 1.20306843,18.2814688 1.16814164,18.2335564 C1.11396034,18.1637029 1.01544888,18.1157905 0.946043081,18.0678781 C0.397065592,17.6796534 0.143622478,16.9645498 0.374676625,16.2978063 C0.959028682,14.6235593 1.76100151,13.0325992 2.75731057,11.571943 C3.0125448,11.1926739 3.27807796,10.8263904 3.56152229,10.4690624 C3.62465918,10.3862233 3.68376606,10.3253253 3.68376606,10.2075593 C3.68376606,10.0503887 3.55749228,9.92411496 3.4007695,9.92411496 C3.36554419,9.92411496 3.32852777,9.9338666 3.29171035,9.94421528 L3.23688226,9.95904175 L2.25803659,10.2295005 C1.43860037,10.4560768 0.59274517,9.97650514 0.36392992,9.15706893 C0.152055655,8.38273404 0.568050968,7.58163881 1.30523698,7.30376822 L1.43860037,7.26027558 L10.0265606,4.87137272 C10.3308267,4.78976493 10.7869739,4.62957187 11.1717143,4.57119963 L11.3571002,4.5513338 Z M23.1096882,8.71233447 C24.8363254,8.71233447 26.2356359,10.111645 26.2356359,11.8338044 C26.2356359,13.5599938 24.8363254,14.9593042 23.1096882,14.9593042 C21.3875288,14.9593042 19.9882184,13.5599938 19.9882184,11.8338044 C19.9882184,10.111645 21.3875288,8.71233447 23.1096882,8.71233447 Z M18.1748463,1.41881479 C19.6681905,2.28213338 20.1800023,4.19146455 19.3166837,5.68659982 C18.4560517,7.18218286 16.5444817,7.69220354 15.0533764,6.82888495 C13.5582412,5.96556635 13.0477727,4.05623519 13.9088524,2.56557771 C14.7699321,1.06999467 16.6792633,0.555496191 18.1748463,1.41881479 Z" id="形状结合" fill="currentColor"></path>
                </g>
            </g>
        </g>
    </g>
</svg>