<?xml version="1.0" encoding="UTF-8"?>
<svg fill="rgba(255, 255, 255, 0.54)" width="46px" height="32px" viewBox="0 0 46 32" version="1.1" xmlns="http://www.w3.org/2000/svg" xmlns:xlink="http://www.w3.org/1999/xlink">
    <title>Snowboarding</title>
    <g id="页面-1" stroke="none" stroke-width="1" fill="none" fill-rule="evenodd">
        <g id="Outrights_icons" transform="translate(-315.000000, -364.000000)">
            <g id="Snowboarding-2备份" transform="translate(315.000000, 364.000000)">
                <g id="Snowboarding" transform="translate(0.000000, 0.000000)">
                    <polygon id="Clip-2" points="0 0 46 0 46 32 0 32"></polygon>
                    <path d="M38,7 C41.8659932,7 45,10.1340068 45,14 C45,17.8659932 41.8659932,21 38,21 C37.5705624,21 37.1501568,20.9613297 36.7420754,20.8872813 C35.9190329,23.8363899 33.2121856,26 30,26 C26.8268097,26 24.1467626,23.8886025 23.2881148,20.9940636 C23.1929763,20.9980385 23.0967172,21 23,21 C22.2330082,21 21.4948277,20.8766443 20.8042155,20.64869 C20.0642914,23.7184256 17.2985908,26 14,26 C10.8268097,26 8.1467626,23.8886025 7.28811479,20.9940636 C7.19297633,20.9980385 7.09671723,21 7,21 C3.13400675,21 0,17.8659932 0,14 C0,10.1340068 3.13400675,7 7,7 C10.1731903,7 12.8532374,9.11139746 13.7118852,12.0059364 C13.8070237,12.0019615 13.9032828,12 14,12 C14.7669918,12 15.5051723,12.1233557 16.1957845,12.35131 C16.9357086,9.28157444 19.7014092,7 23,7 C26.1731903,7 28.8532374,9.11139746 29.7118852,12.0059364 C29.8070237,12.0019615 29.9032828,12 30,12 C30.4294376,12 30.8498432,12.0386703 31.2579246,12.1127187 C32.0809671,9.16361009 34.7878144,7 38,7 Z M14,13.6470588 C13.9970662,13.7641156 14,13.8817152 14,14 C14,17.1954213 11.8589146,19.8907652 8.93311252,20.7296633 C9.65153699,22.836983 11.648733,24.3529412 14,24.3529412 C16.6406521,24.3529412 18.8347143,22.4408628 19.2731915,19.9257015 C17.3152878,18.692424 16.0119572,16.5159412 16.0000818,14.034211 C15.3836047,13.7844511 14.7078472,13.6470588 14,13.6470588 Z M30,13.6470588 C29.9970662,13.7641156 30,13.8817152 30,14 C30,17.1954213 27.8589146,19.8907652 24.9331125,20.7296633 C25.651537,22.836983 27.648733,24.3529412 30,24.3529412 C32.4712314,24.3529412 34.5513399,22.6783448 35.1674612,20.4020164 C32.7119292,19.3147337 31,16.8572881 31,14 C31,13.9137296 31.0015606,13.8278237 31.0046552,13.7423089 C30.6801305,13.6794797 30.3438514,13.6470588 30,13.6470588 Z M7,8.64705882 C4.04365222,8.64705882 1.64705882,11.0436522 1.64705882,14 C1.64705882,16.9563478 4.04365222,19.3529412 7,19.3529412 C7.00293384,19.2358844 7,19.1182848 7,19 C7,15.8045787 9.14108539,13.1092348 12.0668875,12.2703367 C11.348463,10.163017 9.351267,8.64705882 7,8.64705882 Z M23,8.64705882 C20.3593479,8.64705882 18.1652857,10.5591372 17.7268085,13.0742985 C19.6844862,14.3074336 20.9877419,16.4835563 20.999914,18.9649295 C21.6171227,19.2156967 22.2925338,19.3529412 23,19.3529412 C23.0029338,19.2358844 23,19.1182848 23,19 C23,15.8045787 25.1410854,13.1092348 28.0668875,12.2703367 C27.348463,10.163017 25.351267,8.64705882 23,8.64705882 Z M38,8.64705882 C35.5287686,8.64705882 33.4486601,10.3216552 32.8325388,12.5979836 C35.2880708,13.6852663 37,16.1427119 37,19 C37,19.0862704 36.9984394,19.1721763 36.9953448,19.2576911 C37.3198695,19.3205203 37.6561486,19.3529412 38,19.3529412 C40.9563478,19.3529412 43.3529412,16.9563478 43.3529412,14 C43.3529412,11.0436522 40.9563478,8.64705882 38,8.64705882 Z M8.64705882,19 L8.65019733,19.0937503 C10.7990248,18.398107 12.3529412,16.3805218 12.3529412,14 L12.3498027,13.9062497 C10.2009752,14.601893 8.64705882,16.6194782 8.64705882,19 Z M24.6470588,19 L24.6501973,19.0937503 C26.7990248,18.398107 28.3529412,16.3805218 28.3529412,14 L28.3498027,13.9062497 C26.2009752,14.601893 24.6470588,16.6194782 24.6470588,19 Z M32.6592689,14.353279 L32.6648037,14.4390244 C32.8111563,16.2419339 33.8508982,17.7922656 35.3407311,18.646721 C35.2215218,16.8071314 34.172594,15.2212078 32.6592689,14.353279 Z M17.7860827,15.2158809 L17.8026295,15.2863737 C18.0396923,16.2473921 18.536335,17.1061874 19.2139173,17.7841191 C18.9844299,16.7946138 18.4801937,15.9103498 17.7860827,15.2158809 Z" id="形状结合" fill="currentColor" fill-rule="nonzero"></path>
                </g>
            </g>
        </g>
    </g>
</svg>