<?xml version="1.0" encoding="UTF-8"?>
<svg fill="rgba(255, 255, 255, 0.54)" width="33px" height="33px" viewBox="0 0 33 33" version="1.1" xmlns="http://www.w3.org/2000/svg" xmlns:xlink="http://www.w3.org/1999/xlink">
    <title>形状结合</title>
    <g id="v1.0" stroke="none" stroke-width="1" fill="none" fill-rule="evenodd">
        <g id="icon" transform="translate(-624.000000, -87.000000)" fill="currentColor" fill-rule="nonzero">
            <path d="M639.970988,90.6514485 C650.524068,90.6431882 659.17813,97.8063565 659.175148,103.77371 C659.170479,109.739376 650.608222,116.917709 640.055142,116.925969 C629.502061,116.93423 620.952722,109.767601 620.955701,103.803626 C620.960368,97.8413381 629.414529,90.6597114 639.970988,90.6514485 Z M639.770664,92.9075036 C631.279479,92.9095435 624.518654,97.7548448 623.488717,102.589375 L630.741579,102.588709 C631.404321,102.588709 631.941579,103.125967 631.941579,103.788709 C631.941579,104.451451 631.404321,104.988709 630.741579,104.988709 L623.472668,104.988549 C624.48099,109.814512 631.714739,114.409559 640.270664,114.407504 C648.831659,114.405447 655.710071,109.802832 656.660563,104.972272 L649.389257,105.006272 C648.729656,105.009398 648.19241,104.477221 648.189284,103.81762 L648.18927,103.806285 C648.18927,103.145763 648.723069,102.609429 649.383583,102.606298 L656.624172,102.57159 C655.50843,97.7377 648.253912,92.9054656 639.770664,92.9075036 Z M644.838025,99.5007632 C645.500767,99.5007632 646.038025,100.038021 646.038025,100.700763 L646.038025,106.876655 C646.038025,107.539396 645.500767,108.076655 644.838025,108.076655 C644.175284,108.076655 643.638025,107.539396 643.638025,106.876655 L643.638025,100.700763 C643.638025,100.038021 644.175284,99.5007632 644.838025,99.5007632 Z M640.065425,99.5007632 C640.728167,99.5007632 641.265425,100.038021 641.265425,100.700763 L641.265425,106.876655 C641.265425,107.539396 640.728167,108.076655 640.065425,108.076655 C639.402683,108.076655 638.865425,107.539396 638.865425,106.876655 L638.865425,100.700763 C638.865425,100.038021 639.402683,99.5007632 640.065425,99.5007632 Z M635.292824,99.5007632 C635.955566,99.5007632 636.492824,100.038021 636.492824,100.700763 L636.492824,106.876655 C636.492824,107.539396 635.955566,108.076655 635.292824,108.076655 C634.630083,108.076655 634.092824,107.539396 634.092824,106.876655 L634.092824,100.700763 C634.092824,100.038021 634.630083,99.5007632 635.292824,99.5007632 Z" id="形状结合" transform="translate(640.065425, 103.788709) rotate(-45.000000) translate(-640.065425, -103.788709) "></path>
        </g>
    </g>
</svg>