<?xml version="1.0" encoding="UTF-8"?>
<svg width="44px" height="44px" viewBox="0 0 44 44" version="1.1" xmlns="http://www.w3.org/2000/svg" xmlns:xlink="http://www.w3.org/1999/xlink">
    <title>形状结合</title>
    <g id="页面-1" stroke="none" stroke-width="1" fill="#9e9e9e" fill-rule="evenodd">
        <g id="Withdraw/审核流程" transform="translate(-30.000000, -358.000000)" fill="#9e9e9e" fill-rule="nonzero">
            <path d="M52,358 C64.1502645,358 74,367.849736 74,380 C74,392.150264 64.1502645,402 52,402 C39.8497355,402 30,392.150264 30,380 C30,367.849736 39.8497355,358 52,358 Z M65.1970862,372.200872 C64.4992916,371.669789 63.4990219,371.722897 62.8617222,372.360197 L62.8617222,372.360197 L50.2931036,384.455648 L44.8381469,379.000692 L44.6558386,378.841367 C43.958044,378.310284 42.9577743,378.363392 42.3204746,379.000692 C41.6252386,379.695928 41.6252386,380.823128 42.3204746,381.518364 L42.3204746,381.518364 L49.0342674,388.232157 L49.2165757,388.391482 C49.9143704,388.922565 50.9146401,388.869457 51.5519397,388.232157 L51.5519397,388.232157 L65.3793945,374.877869 L65.5387194,374.695561 C66.0698025,373.997766 66.0166942,372.997496 65.3793945,372.360197 L65.3793945,372.360197 Z" id="形状结合"></path>
        </g>
    </g>
</svg>