<?xml version="1.0" encoding="UTF-8"?>
<svg fill="rgba(255, 255, 255, 0.54)" width="32px" height="32px" viewBox="0 0 32 32" version="1.1" xmlns="http://www.w3.org/2000/svg" xmlns:xlink="http://www.w3.org/1999/xlink">
    <title>icon_Short track</title>
    <g id="页面-1" stroke="none" stroke-width="1" fill="none" fill-rule="evenodd">
        <g id="Outrights_icons" transform="translate(-323.000000, -119.000000)">
            <g id="icon_Short-track" transform="translate(323.000000, 119.000000)">
                <rect id="矩形" x="0" y="0" width="32" height="32"></rect>
                <g id="Curling" transform="translate(1.000000, 3.000000)">
                    <g id="编组">
                        <path d="M28.49725,2.8748066 C28.49725,3.9788066 27.60225,4.8748066 26.49825,4.8748066 C25.39325,4.8748066 24.49825,3.9788066 24.49825,2.8748066 C24.49825,1.7708066 25.39325,0.874806604 26.49825,0.874806604 C27.60225,0.874806604 28.49725,1.7708066 28.49725,2.8748066" id="Fill-1" fill="currentColor"></path>
                        <g transform="translate(4.999500, 0.000000)">
                            <path d="M0.755580964,4.58181226 C2.58536032,1.52727075 4.83341667,0 7.49975,0 C11.49925,0 14.8441299,2.04354377 15.1715399,4.19160873 C15.49895,6.3396737 11.7103831,5.58074056 9.65238684,8.03295442 C7.59439056,10.4851683 7.59781483,12.2780555 7.59572874,13.845935 C6.39121694,15.2890834 3.85930736,17.8806483 0,21.6206298" id="路径-2" stroke="currentColor" stroke-width="3" stroke-linecap="round"></path>
                            <path d="M13.5814345,13.8250954 C13.5814345,17.7772138 13.5814345,19.9600675 13.5814345,20.3736566 C13.5814345,20.7872457 11.7464868,20.8985531 8.07659144,20.7075787" id="路径-3" stroke="#979797"></path>
                        </g>
                        <path d="M0.600360036,26 C0.446744674,26 0.293129313,25.9411912 0.175517552,25.8247737 C-0.0585058506,25.5895384 -0.0585058506,25.2102815 0.175517552,24.9750463 L4.9759976,20.1755263 C5.210021,19.9414912 5.58925893,19.9414912 5.82448245,20.1755263 C6.05850585,20.4107616 6.05850585,20.7900185 5.82448245,21.0240536 L1.02520252,25.8247737 C0.907590759,25.9411912 0.753975398,26 0.600360036,26" id="Fill-9" fill="currentColor"></path>
                    </g>
                    <path d="M18.5809345,13.8250954 C18.5809345,17.1189413 18.5809345,19.544524 18.5809345,21.1018438 C17.1928115,21.1018438 15.5749258,21.1018438 13.7272773,21.1018438" id="路径-4" stroke="currentColor" stroke-width="3" stroke-linecap="round" stroke-linejoin="round"></path>
                    <line x1="22.7971747" y1="8.38801268" x2="27.5985291" y2="17.311582" id="路径-4" stroke="currentColor" stroke-width="3" stroke-linecap="round" stroke-linejoin="round"></line>
                    <circle id="椭圆形" fill="currentColor" cx="27" cy="3.00306334" r="3"></circle>
                </g>
            </g>
        </g>
    </g>
</svg>