<?xml version="1.0" encoding="UTF-8"?>
<svg fill="rgba(255, 255, 255, 0.54)" width="32px" height="32px" viewBox="0 0 32 32" version="1.1" xmlns="http://www.w3.org/2000/svg" xmlns:xlink="http://www.w3.org/1999/xlink">
    <title>Skeleton</title>
    <g id="页面-1" stroke="none" stroke-width="1" fill="none" fill-rule="evenodd">
        <g id="Outrights_icons" transform="translate(-239.000000, -243.000000)">
            <g id="Skeleton" transform="translate(239.000000, 243.000000)">
                <polygon id="Clip-2" points="0 0 32 0 32 32 0 32"></polygon>
                <path d="M25.8836662,18.9664116 C27.7809483,19.0142381 29.2808268,20.5934987 29.2320141,22.4897947 C29.1827085,24.3905282 27.6019687,25.8884344 25.7046866,25.8401149 C23.8074045,25.7873578 22.307526,24.2080972 22.3563386,22.3118012 C22.4056443,20.4159982 23.9863841,18.9136545 25.8836662,18.9664116 L25.8836662,18.9664116 Z M6.04257204,21.8798835 C5.88282167,21.7842306 5.82907849,21.5776398 5.92128009,21.414438 C6.01742615,21.2561668 6.22352384,21.2034098 6.38573949,21.2990628 L11.4055496,24.2416251 C11.4814804,24.2899446 11.530786,24.3234725 11.6220015,24.3234725 C11.7669602,24.3234725 11.886773,24.2223959 11.9267105,24.092722 C11.9434745,24.0212287 11.9316411,23.9827703 11.9291758,23.910291 C11.9242453,23.8289366 11.9267105,23.7426517 11.9341064,23.6563668 C11.9755232,23.1233725 12.2674127,22.614538 12.7663861,22.3260998 L16.3454846,20.2143381 C16.4579015,20.1472823 16.5298878,20.0703655 16.5298878,19.926393 C16.5298878,19.8785665 16.5165752,19.8302469 16.4978391,19.787351 C16.453464,19.700573 16.401693,19.6764132 16.3262554,19.6335173 L10.0723243,16.0184257 C8.58920983,15.1644515 7.14751208,14.2187687 5.92966206,12.9994396 C4.98052794,12.0537568 4.1521927,10.9734696 3.46980225,9.78816135 C3.17939186,9.28376436 2.91609959,8.76556178 2.68239072,8.22812999 C2.45213324,7.69513572 2.24800778,7.14784279 2.07494488,6.59068874 C1.8003123,5.69825613 2.30421624,4.74764284 3.19812801,4.46955887 C4.09598424,4.20034992 5.04413225,4.69932328 5.31975094,5.59767257 C5.45238319,6.02959023 5.6116405,6.45657732 5.79407147,6.87419633 C5.97305105,7.28244727 6.17717652,7.69020515 6.40644787,8.08859495 C6.93401853,8.99581926 7.5809089,9.84091842 8.33577869,10.5948021 C9.03789141,11.2949426 9.8144557,11.9092912 10.6462423,12.4087576 C10.7118189,12.4472161 10.8247288,12.5098343 10.904111,12.5098343 C11.0756947,12.5098343 11.2162159,12.3707923 11.2162159,12.1977294 C11.2162159,12.1065139 11.1693755,12.0251595 11.1323962,11.9433121 C10.5007906,10.489288 10.0018172,8.97659005 9.64533725,7.42148925 C9.42888537,6.4807371 9.26716277,5.5301238 9.15918336,4.57014243 C9.05366923,3.63875835 9.00189828,2.67877698 9.00189828,1.69463583 C9.00189828,0.758321185 9.75775418,0 10.6950549,0 C11.6313696,0 12.3911699,0.758321185 12.3911699,1.69463583 C12.3911699,2.51064465 12.4375173,3.34588268 12.5361286,4.20034992 C12.6288233,5.03065738 12.7688514,5.85159676 12.9562129,6.66316807 C13.3905958,8.56883217 14.0744655,10.40251 14.9831689,12.115882 C15.7010595,13.4747462 16.5614434,14.7562005 17.5500221,15.9420019 C18.4094199,16.9739695 18.2403014,16.8156983 19.3659498,17.4685054 L21.0423426,18.4383479 C21.8539139,18.9037934 22.1310117,19.9411847 21.6616218,20.7567004 C21.3810725,21.2364446 20.9437312,21.4430353 20.4817371,21.7117512 L17.3557577,23.5557832 C17.2763756,23.5986792 17.1851601,23.6415751 17.1314169,23.718985 C17.0954238,23.771249 17.0747154,23.8338672 17.0747154,23.9009229 C17.0747154,23.9684717 17.0954238,24.0261593 17.1264864,24.0734927 C17.1708615,24.1410415 17.2393963,24.1844305 17.3064521,24.2223959 L19.9009163,25.945629 C20.6858626,26.4643246 20.8998492,27.5155215 20.3811536,28.2980024 C20.28057,28.4518361 20.1543475,28.5864406 20.0177708,28.6963922 C19.9659998,28.7348507 19.9166942,28.763941 19.8772496,28.8166981 C19.837312,28.8694551 19.8161106,28.9315803 19.8161106,29.0035666 C19.8161106,29.085414 19.8447079,29.1524697 19.8940136,29.2101573 C19.9334581,29.2530532 19.9733957,29.2722825 20.0246736,29.3063034 L22.5629294,30.7943485 L22.5653947,30.799279 C22.8341106,30.9624808 23.1412849,31.0004461 23.4233133,30.9333904 C23.7043556,30.8663347 23.959759,30.6883413 24.1219746,30.4245559 C24.2200929,30.2662847 24.429149,30.2179652 24.5888993,30.3146043 C24.7481566,30.4102573 24.7999276,30.6217786 24.7018093,30.7800498 C24.4409823,31.2021063 24.0307592,31.4856139 23.5805984,31.5911281 C23.1314238,31.7015728 22.6398462,31.6389546 22.2148314,31.3751692 L6.04257204,21.8798835 Z" id="Fill-1" fill="currentColor"></path>
            </g>
        </g>
    </g>
</svg>