<?xml version="1.0" encoding="UTF-8"?>
<svg fill="rgba(255, 255, 255, 0.54)" width="32px" height="32px" viewBox="0 0 32 32" version="1.1" xmlns="http://www.w3.org/2000/svg" xmlns:xlink="http://www.w3.org/1999/xlink">
    <title>Ski jumping</title>
    <g id="页面-1" stroke="none" stroke-width="1" fill="none" fill-rule="evenodd">
        <g id="Outrights_icons" transform="translate(-646.000000, -243.000000)">
            <g id="Ski-jumping-2" transform="translate(646.000000, 243.000000)">
                <g id="Ski-jumping" transform="translate(0.000000, 0.000000)">
                    <polygon id="Clip-2" points="0 0 32 0 32 32 0 32"></polygon>
                    <path d="M8.3029047,25.1904935 C8.32757365,25.2352631 8.34539012,25.2841442 8.34539012,25.3417051 C8.34539012,25.4883483 8.26041928,25.5550458 8.14484066,25.6222002 L0.157124827,30.2430607 C0.00591327712,30.3275747 -0.0434246303,30.523099 0.0410893777,30.6743106 C0.130171711,30.8255221 0.321584518,30.87486 0.472339235,30.7857777 L31.1216869,13.0574798 C31.1257984,13.0529115 31.1303667,13.0483432 31.1390465,13.0442317 C31.5264404,12.8126176 31.7932306,12.4480653 31.9042409,12.0387434 C32.012967,11.62531 31.9668269,11.167107 31.7352129,10.7669218 C31.7219647,10.744537 31.7046051,10.722609 31.6822203,10.7002242 L31.6867886,10.7002242 C31.5620734,10.575509 31.3619807,10.575509 31.2372655,10.7002242 C31.1303667,10.8112345 31.1171185,10.9802625 31.2016325,11.1049778 C31.3350276,11.3493832 31.3619807,11.62531 31.2925422,11.8742837 C31.2285857,12.1278257 31.0659533,12.3544146 30.8284004,12.5015147 C30.8146954,12.5056262 30.7991631,12.5147628 30.7881992,12.5234426 L15.2878733,21.4901505 C15.2252872,21.5257834 15.1855428,21.5477114 15.1055971,21.5477114 C14.99413,21.5477114 14.9009361,21.4855822 14.8497709,21.3923883 C14.7940373,21.2854895 14.8296703,21.1740224 14.8319544,21.0589006 C14.8388069,20.7651573 14.7634296,20.4627342 14.5939447,20.1913757 C14.271421,19.6756119 13.6999236,19.4088217 13.1329945,19.4531345 C13.052592,19.4618143 13.0064519,19.4755193 12.9260494,19.4439978 C12.8150391,19.4042534 12.7346365,19.2973546 12.7346365,19.1730962 C12.7346365,19.0748772 12.7839745,19.012748 12.8328555,18.9328023 C13.0594444,18.5636816 13.2956268,18.1986725 13.537748,17.8432568 C14.8630191,15.8907548 16.4486846,14.106824 18.2613958,12.5458274 C19.1531328,11.780633 20.0800459,11.0780247 21.0412215,10.4421139 C21.9905193,9.8148829 23.0069716,9.23698981 24.0787006,8.7120893 C24.8635388,8.32926369 25.1883467,7.38636146 24.808262,6.60380742 C24.4587852,5.89206243 23.6497349,5.55857472 22.9156051,5.78973195 C22.7913467,5.79430028 22.6574948,5.81211674 22.5309522,5.84774968 L10.1909933,9.28130256 C9.35498989,9.5124598 8.86526548,10.3754163 9.09642271,11.2159881 C9.32803678,12.0519915 10.1932775,12.5417159 11.0269968,12.3101019 L13.8849407,11.5142997 C13.9534656,11.4960264 14.0137675,11.4782099 14.0845765,11.4782099 C14.102393,11.4782099 14.1224936,11.4782099 14.1361986,11.4827783 C14.271421,11.5051631 14.3760356,11.6207417 14.3760356,11.7673849 C14.3760356,11.8075862 14.366899,11.8518989 14.3490825,11.8875318 C14.3230431,11.9501179 14.271421,11.9898623 14.2248241,12.0387434 C13.0151317,13.288637 11.9164496,14.6408612 10.9383713,16.0817108 C9.45457937,18.26537 8.25585096,20.6408989 7.38193043,23.1489092 C7.12656108,23.8871505 7.45136897,24.6834095 8.11606022,25.0438503 C8.19417857,25.0840516 8.25173946,25.1059795 8.3029047,25.1904935 M30.2852266,2.42744493 C31.8064787,3.30821795 32.3290951,5.25615162 31.4506062,6.77740377 C30.5698332,8.3027674 28.6241837,8.82309959 27.0988201,7.9468949 C25.5757406,7.0620104 25.0549516,5.11818821 25.9334404,3.59282458 C26.8119293,2.07157243 28.7644313,1.54667192 30.2852266,2.42744493" id="Fill-1" fill="currentColor"></path>
                </g>
            </g>
        </g>
    </g>
</svg>