<?xml version="1.0" encoding="UTF-8"?>
<svg fill="rgba(255, 255, 255, 0.54)" width="32px" height="32px" viewBox="0 0 32 32" version="1.1" xmlns="http://www.w3.org/2000/svg" xmlns:xlink="http://www.w3.org/1999/xlink">
    <title>编组 6</title>
    <g id="页面-1" stroke="none" stroke-width="1" fill="none" fill-rule="evenodd">
        <g id="Outrights_icons" transform="translate(-239.000000, -364.000000)">
            <g id="sports_tabbar1备份-4" transform="translate(49.000000, 347.000000)">
                <g id="sports_tab_unselected-2" transform="translate(170.000000, 6.000000)">
                    <g id="编组-8" transform="translate(20.000000, 11.000000)">
                        <rect id="矩形" x="0" y="0" width="32" height="32"></rect>
                        <g id="编组-7" transform="translate(3.000000, 3.000000)">
                            <path d="M13,0.0830265283 C20.1797017,0.0830265283 26,5.90332478 26,13.0830265 C26,20.2627283 20.1797017,26.0830265 13,26.0830265 C5.82029825,26.0830265 0,20.2627283 0,13.0830265 C0,5.90332478 5.82029825,0.0830265283 13,0.0830265283 Z M10,3.08302653 C5.581722,3.08302653 2,6.66474853 2,11.0830265 C2,15.5013045 5.581722,19.0830265 10,19.0830265 C14.418278,19.0830265 18,15.5013045 18,11.0830265 C18,6.66474853 14.418278,3.08302653 10,3.08302653 Z" id="形状结合" fill="currentColor"></path>
                            <text id="8" transform="translate(10.000000, 11.083027) rotate(19.000000) translate(-10.000000, -11.083027) " font-family="PingFangSC-Medium, PingFang SC" font-size="14" font-weight="400" letter-spacing="0.888888889" fill="currentColor">
                                <tspan x="5.35555556" y="16.0830265">8</tspan>
                            </text>
                        </g>
                    </g>
                </g>
            </g>
        </g>
    </g>
</svg>