<?xml version="1.0" encoding="UTF-8"?>
<svg fill="rgba(255, 255, 255, 0.54)" width="32px" height="32px" viewBox="0 0 32 32" version="1.1" xmlns="http://www.w3.org/2000/svg" xmlns:xlink="http://www.w3.org/1999/xlink">
    <title>Snowboarding</title>
    <g id="页面-1" stroke="none" stroke-width="1" fill="none" fill-rule="evenodd">
        <g id="Outrights_icons" transform="translate(-158.000000, -364.000000)">
            <g id="Snowboarding" transform="translate(158.000000, 364.000000)">
                <polygon id="Clip-2" points="0 0 32 0 32 32 0 32"></polygon>
                <path d="M26.5584146,14.1073357 C26.4619301,13.6350691 26.3423631,13.1992727 26.2010986,12.7897903 C25.8350111,11.7247668 25.3041151,10.7317604 24.6305697,9.83708526 C24.2390916,9.32050037 23.8005253,8.83946243 23.3227189,8.39904957 C23.2553182,8.34042019 23.1786845,8.28225245 23.142676,8.19684745 C23.1339046,8.16545533 23.1246717,8.12944674 23.1246717,8.08882165 C23.1246717,8.04819657 23.1362129,8.00803313 23.1514473,7.96740804 C23.1828394,7.90000733 23.2502401,7.8418396 23.304253,7.7878267 C23.5332307,7.5583873 23.7538988,7.31602174 23.9653339,7.05934506 C24.5940994,6.29577812 25.0982198,5.45511585 25.471232,4.56505717 C25.839166,3.67499849 26.0796849,2.72677207 26.1784778,1.74253705 C26.2638828,0.875099155 25.6254226,0.0930662669 24.7519833,0.00766125845 C23.8794673,-0.07774375 23.1020509,0.560716394 23.0166459,1.43230913 C22.9497068,2.08877357 22.7876681,2.73138855 22.5309914,3.34722791 C22.2752381,3.95845078 21.933618,4.52904857 21.5107478,5.04609511 C20.3155393,6.50675158 18.6079008,7.37880596 16.7945448,7.60362887 C14.965031,7.83260663 13.0316463,7.41019807 11.4094127,6.28192866 C10.6878558,5.77873158 9.69254125,5.95415809 9.19119076,6.67756159 C8.68845534,7.40142674 8.86803668,8.39443309 9.59144018,8.89347532 C11.8858342,10.4889332 14.604945,11.0913848 17.1809447,10.7631525 C18.1444055,10.6463554 19.0907854,10.3901404 19.991462,10.0171282 C20.0279322,9.99912395 20.0704039,9.99035262 20.1179537,9.99035262 C20.1853544,9.99035262 20.2509085,10.0171282 20.3016899,10.0577533 C20.3358519,10.0799125 20.3700139,10.1066881 20.4009444,10.1293089 C21.0527923,10.5835712 21.6187736,11.1315482 22.0905786,11.7566205 C22.1316653,11.8060169 22.1690589,11.8595682 22.2073757,11.9140427 C22.2433843,11.9629775 22.2664667,12.0262234 22.2664667,12.0936241 C22.2664667,12.2552011 22.1358201,12.3858477 21.9742431,12.3858477 C21.9377729,12.3858477 21.9068424,12.3766147 21.8726804,12.3678434 C21.5107478,12.2464298 21.1423522,12.1430205 20.7647235,12.0576155 C19.0972484,11.6712155 17.3942264,11.6532112 15.75999,11.976827 C14.7646754,12.1744126 13.7896734,12.5026448 12.8636061,12.951829 C12.7957438,12.9878376 12.7440391,13.0150749 12.6590958,13.0150749 C12.5981581,13.0150749 12.5450685,13.0012254 12.4970571,12.9698333 C12.4278098,12.9245917 12.4028807,12.8710405 12.3645639,12.8036398 L11.9472335,12.0756198 C11.5082056,11.3162077 10.5396666,11.0553762 9.77979285,11.4911725 C9.58451545,11.6038148 9.42524665,11.7473876 9.29921656,11.9181976 C9.26782445,11.9588227 9.24058717,12.0036026 9.20227033,12.0349947 C9.15102733,12.0797746 9.08316497,12.1023954 9.01391767,12.1023954 C8.94836355,12.1023954 8.89065746,12.0843911 8.8407994,12.052999 C8.78263167,12.0082191 8.75770264,11.9629775 8.72400229,11.9001933 L5.77776032,6.82159598 C5.77591372,6.8169795 5.77360548,6.81236301 5.76898899,6.80774652 C5.63187933,6.56076447 5.60464206,6.27777382 5.67250442,6.0215588 C5.74405996,5.7561108 5.91071514,5.52251656 6.16646852,5.37432733 C6.31465775,5.28846067 6.3691323,5.09549152 6.28372729,4.9426858 C6.19370579,4.78988008 6.00027499,4.74048367 5.84746927,4.82588868 C5.44352666,5.05948292 5.17115393,5.43711155 5.05666506,5.85536527 C4.94863926,6.26392436 4.99111094,6.71818668 5.2182421,7.12259093 C5.22239694,7.12720742 5.22239694,7.13597875 5.22701343,7.14475007 L18.9352098,30.786703 C19.1715739,31.1906456 19.5468943,31.4653266 19.9669946,31.5775072 C20.3834017,31.6901495 20.845512,31.6402914 21.2508396,31.4066972 C21.4031837,31.3212922 21.4567349,31.1278614 21.3671751,30.9750557 C21.2817701,30.8222499 21.0883393,30.7686987 20.9355335,30.8582585 C20.683935,31.0022929 20.392173,31.0336851 20.1313415,30.9616679 C19.8682018,30.8901123 19.6322993,30.7234571 19.4891882,30.4672421 L16.873025,25.9592426 C16.823167,25.8696828 16.7511498,25.7750448 16.7511498,25.6716355 C16.7511498,25.5682262 16.8056243,25.4740498 16.8887211,25.4200369 C16.9787426,25.366024 17.104311,25.3747954 17.2049504,25.3567911 C17.3849934,25.3253989 17.5631898,25.2626147 17.7289217,25.1684384 C17.8254063,25.109809 17.9154278,25.0424083 17.9962163,24.9703911 C18.1716428,24.8448227 18.3262951,24.682784 18.4435539,24.4805818 L22.9150831,16.9067734 C22.9515534,16.8444508 22.9852537,16.7770501 23.0420365,16.7318085 C23.0928179,16.6916451 23.1560638,16.6690243 23.2230028,16.6690243 C23.2502401,16.6690243 23.2728609,16.6736408 23.2931734,16.6777956 C23.3536494,16.6916451 23.3901197,16.7184207 23.4390544,16.7585841 C23.6546444,16.9252393 23.861463,17.1002042 24.0618185,17.2848636 C24.7021252,17.8826987 25.7094427,17.8466901 26.3063545,17.2040751 C26.9946727,16.4663605 26.7444591,15.0195535 26.5584146,14.1073357 M19.9780742,15.6215434 L17.1961791,20.340978 C17.1670953,20.3903744 17.1426279,20.435616 17.0950781,20.4762411 C17.0438351,20.521021 16.9787426,20.5431801 16.9062637,20.5431801 C16.7871584,20.5431801 16.737762,20.4891672 16.6477405,20.426383 C16.1579312,20.084763 15.4977736,20.0353666 14.9442568,20.3543658 C14.7512876,20.4716246 14.5897106,20.6151973 14.4636805,20.7906238 C14.4138224,20.853408 14.3870468,20.9115758 14.3090282,20.9568174 C14.2656332,20.9840546 14.2166984,20.9974424 14.1626856,20.9974424 C14.117444,20.9974424 14.0722024,20.9840546 14.032039,20.9655887 C13.9327845,20.9115758 13.8930827,20.8173994 13.8386082,20.7278396 L11.8793711,17.3430314 C11.8392077,17.2714758 11.8073539,17.2313124 11.8073539,17.1408292 C11.8073539,17.0235705 11.874293,16.9252393 11.9758557,16.8753812 C12.0547976,16.8398343 12.1665166,16.8486056 12.2569997,16.8398343 C12.5173696,16.8084422 12.7689681,16.7138042 12.9988692,16.5522272 C14.0168046,15.8288237 15.1667715,15.3385527 16.3693663,15.100342 C17.4791698,14.8801356 18.6272901,14.8755191 19.7537129,15.0915707 C19.8432727,15.109575 19.9111351,15.1178847 19.9803824,15.1903635 C20.0343953,15.2397599 20.0662491,15.315932 20.0662491,15.3971821 C20.0662491,15.4913585 20.0237774,15.5453714 19.9780742,15.6215434 M16.4136846,6.41257524 C18.1541002,6.77173793 19.8589688,5.65316314 20.2209014,3.91320921 C20.5805257,2.17417858 19.4642592,0.466078412 17.721997,0.106454079 C15.9783499,-0.252708605 14.2767128,0.865866181 13.9147802,2.60535846 C13.5533093,4.34946723 14.6728074,6.05295091 16.4136846,6.41257524" id="Fill-1" fill="currentColor"></path>
            </g>
        </g>
    </g>
</svg>