<?xml version="1.0" encoding="UTF-8"?>
<svg fill="rgba(255, 255, 255, 0.54)" width="32px" height="32px" viewBox="0 0 32 32" version="1.1" xmlns="http://www.w3.org/2000/svg" xmlns:xlink="http://www.w3.org/1999/xlink">
    <title>Speed skating</title>
    <g id="页面-1" stroke="none" stroke-width="1" fill="none" fill-rule="evenodd">
        <g id="Outrights_icons" transform="translate(-402.000000, -119.000000)">
            <g id="Speed-skating" transform="translate(402.000000, 119.000000)">
                <path d="M22.4657933,28.6637226 C22.4590686,28.9993092 22.1830995,29.2658095 21.848356,29.2599749 L12.9598487,29.1058557 C12.7924919,29.1020801 12.6417552,29.0316251 12.5338111,28.9198457 C12.425867,28.8080664 12.3607156,28.6549626 12.3627829,28.487576 C12.3695076,28.1519895 12.6454767,27.8854892 12.9810935,27.8904804 L21.8695709,28.0463163 C22.2043143,28.0521509 22.4708013,28.3281062 22.4657933,28.6637226 Z M14.1007097,3.73799797 L15.0678355,4.00554799 L16.4388046,4.39869712 L17.2998335,4.65546772 L18.118659,4.90807266 L18.8954154,5.15659545 L19.6302371,5.40111958 L20.4899983,5.70127883 L21.284709,5.99548372 C21.4879818,6.07315893 21.684344,6.15021641 21.8738178,6.22667007 L22.5520993,6.51056804 L23.1660655,6.78896827 L23.3937025,6.89882552 L23.8182982,7.11602112 C24.0203869,7.22378973 24.2071784,7.33032498 24.3787485,7.43567385 C25.2806155,7.98944556 25.3828623,9.26066289 24.5810988,9.95146134 C23.431387,10.9420516 20.9594618,11.5385026 17.8208901,11.750341 L17.6192596,11.7610328 L17.6655298,11.7843257 C20.7100171,13.3739183 22.0407572,15.7173391 21.2251444,18.5321511 C21.1704653,18.7208573 21.0806951,18.8975615 20.9605382,19.0530034 C19.7722968,20.5901801 18.4839371,22.0871878 17.0956676,23.544031 L16.8909879,23.7540304 L20.4688305,23.8151053 C21.281074,23.8286863 21.938212,24.4595681 22.0006815,25.2532385 L22.0053185,25.4038484 C21.9917375,26.2160919 21.3608557,26.8732298 20.5671853,26.9356994 L20.4165754,26.9403363 L13.1002456,26.8180044 C11.6902231,26.7944283 11.0301726,25.0627427 12.0667693,24.1066115 C14.235048,22.1066447 16.1852324,20.026034 17.918026,17.8647948 L18.2845683,17.3977844 L18.2904206,17.3759301 C18.4808436,16.3097551 17.9209739,15.4512327 16.295235,14.594331 C15.0102845,17.2712003 13.5492963,18.3046083 10.5302308,18.8828417 L10.2457298,18.9342405 C9.68120527,19.0302065 9.10838309,19.0941792 8.48168477,19.1371382 L7.65764272,19.1802008 L6.21234567,19.2290392 L5.73362896,19.2569972 L5.50218362,19.2810504 L5.38959207,19.2964726 L5.23957216,19.4342537 L5.01615583,19.6537667 L4.75862931,19.9200813 L4.46763945,20.2326722 L3.96982577,20.7871781 L3.59800736,21.2131626 L3.19498946,21.6835854 L2.7614189,22.1979214 C2.20749796,22.8598609 1.22184834,22.9474272 0.559908854,22.3935063 C-0.102030632,21.8395853 -0.189596967,20.8539357 0.36432397,20.1919962 L1.06531769,19.363874 L1.49273899,18.8703744 L1.88898863,18.4231277 L2.25471345,18.0216087 L2.59056025,17.6652923 L2.89717587,17.3536533 L3.17520711,17.0861665 C3.30718444,16.9633737 3.4286852,16.8569411 3.54007321,16.7665732 C4.0729805,16.3342314 4.6180103,16.1959704 5.59720335,16.1314539 L6.41680729,16.0949529 L7.84326853,16.0438957 C8.5505755,16.0081918 9.15233889,15.9496016 9.72189873,15.8527797 C12.9024601,15.3121021 13.8713063,14.1085935 14.2813144,10.1093763 C14.361997,9.32239917 15.0180202,8.71982982 15.8090044,8.70616509 C16.7933917,8.6891592 17.7291803,8.63133513 18.575296,8.54435535 L19.0172452,8.49516836 L18.377015,8.27721754 L17.0953291,7.86365088 L16.1651426,7.57879229 L15.1746439,7.28678404 L14.1240651,6.9877704 L13.0136384,6.68189567 L11.8435963,6.36930412 L10.7188854,6.07698456 C9.8828512,5.86241716 9.37905284,5.01073632 9.59362024,4.17470216 C9.79556602,3.38784648 10.5618753,2.89528964 11.3483376,3.01895069 L11.4959026,3.04943703 L12.5699653,3.32828832 L14.1007097,3.73799797 Z M29.7208046,5.06717109 C31.3397083,5.50095503 32.3004377,7.16498716 31.8666537,8.78389087 C31.4328698,10.4027946 29.7688377,11.363524 28.1499339,10.92974 C26.5310302,10.4959561 25.5703008,8.83192397 26.0040848,7.21302025 C26.4378687,5.59411654 28.1019009,4.63338715 29.7208046,5.06717109 Z" id="形状" fill="currentColor" fill-rule="nonzero"></path>
                <rect id="矩形" x="0" y="0" width="32" height="32"></rect>
            </g>
        </g>
    </g>
</svg>