<?xml version="1.0" encoding="UTF-8"?>
<svg fill="rgba(255, 255, 255, 0.54)" width="46px" height="46px" viewBox="0 0 46 46" version="1.1" xmlns="http://www.w3.org/2000/svg" xmlns:xlink="http://www.w3.org/1999/xlink">
    <title>编组</title>
    <g id="页面-1" stroke="none" stroke-width="1" fill="none" fill-rule="evenodd">
        <g id="icon" transform="translate(-185.000000, -843.000000)">
            <g id="编组" transform="translate(185.000000, 843.000000)">
                <rect id="矩形" x="0" y="0" width="46" height="46" rx="1"></rect>
                <path d="M8.15024467,8.15009574 C16.3503723,-0.0500319149 29.6493298,-0.0500319149 37.8499043,8.15009574 C46.0500319,16.351117 46.0500319,29.6457553 37.8499043,37.8467269 C29.6493298,46.0466064 16.3503723,46.0466064 8.15024467,37.8467269 C-0.049882986,29.6457057 -0.0502801273,16.3510674 8.15024467,8.15009574 Z M35.8700592,10.1300487 C28.7629494,3.0233261 17.2368123,3.0233261 10.1301437,10.1299947 C3.02320526,17.2373204 3.0233117,28.7592215 10.1301137,35.866798 C17.2367892,42.9732583 28.7629725,42.9732583 35.8699034,35.8669298 C42.9766999,28.7594019 42.9766999,17.2374638 35.8700592,10.1300487 Z" id="路径" fill="currentColor" fill-rule="nonzero"></path>
                <path d="M4,19.6 C17.5901808,19.6 25.4784066,26.9959336 27.3341555,41.3826421 L27.3901836,41.834502 L24.6098164,42.165498 C23.0419613,28.9955151 16.4161202,22.5425695 4.40245157,22.4023369 L4,22.4 L4,19.6 Z" id="路径-3" fill="currentColor" fill-rule="nonzero"></path>
                <path d="M23.3901836,2.83450195 C24.9580387,16.0044849 31.5838798,22.4574305 43.5975484,22.5976631 L44,22.6 L44,25.4 C30.4098192,25.4 22.5215934,18.0040664 20.6658445,3.61735787 L20.6098164,3.16549805 L23.3901836,2.83450195 Z" id="路径-3备份" fill="currentColor" fill-rule="nonzero"></path>
            </g>
        </g>
    </g>
</svg>